<svg width="1476" height="2287" viewBox="0 0 1476 2287" fill="none" xmlns="http://www.w3.org/2000/svg">
<g opacity="0.36">
<path d="M1471.13 502.64C1471.16 502.45 1471.14 502.25 1471.06 502.07L1331.25 176.9C1331.03 176.39 1330.44 176.16 1329.93 176.38C1329.42 176.6 1329.19 177.19 1329.41 177.7L1469.22 502.87C1469.44 503.38 1470.03 503.61 1470.54 503.4C1470.86 503.26 1471.07 502.97 1471.13 502.65V502.64Z" fill="white"/>
</g>
<path d="M1475.76 508.53V511.96L1469.32 503.06C1469 502.61 1469.1 501.99 1469.55 501.66C1470 501.33 1470.62 501.43 1470.95 501.88L1475.76 508.53Z" fill="white"/>
<g opacity="0.22">
<path d="M1073.1 777.66C1073.17 777.24 1072.98 776.81 1072.59 776.6L719.1 584.79C718.61 584.53 718.01 584.71 717.74 585.2C717.47 585.69 717.66 586.3 718.15 586.56L1071.64 778.37C1072.13 778.63 1072.73 778.45 1073 777.97C1073.05 777.87 1073.09 777.77 1073.11 777.67L1073.1 777.66Z" fill="white"/>
</g>
<g opacity="0.02">
<path d="M1471.13 502.64C1471.17 502.39 1471.13 502.12 1470.97 501.89C1470.66 501.43 1470.03 501.32 1469.58 501.63L1071.55 776.65C1071.1 776.97 1070.98 777.59 1071.29 778.05C1071.6 778.51 1072.23 778.62 1072.68 778.31L1470.71 503.29C1470.94 503.13 1471.08 502.89 1471.13 502.64Z" fill="white"/>
</g>
<g opacity="0.47">
<path d="M1475.76 578.13V580.21L1219.45 513.24C1218.91 513.1 1218.59 512.56 1218.73 512.02C1218.87 511.48 1219.42 511.16 1219.95 511.3L1475.75 578.14L1475.76 578.13Z" fill="white"/>
</g>
<g opacity="0.76">
<path d="M1471.13 502.64C1471.14 502.57 1471.15 502.5 1471.14 502.42C1471.12 501.87 1470.65 501.43 1470.1 501.46L1219.67 511.25C1219.12 511.27 1218.69 511.74 1218.71 512.29C1218.73 512.84 1219.2 513.28 1219.75 513.25L1470.18 503.46C1470.66 503.44 1471.05 503.09 1471.13 502.63V502.64Z" fill="white"/>
</g>
<g opacity="0.75">
<path d="M1220.69 512.43C1220.76 512.02 1220.57 511.59 1220.19 511.38C1219.71 511.11 1219.1 511.28 1218.83 511.77L1071.23 777C1070.96 777.48 1071.13 778.1 1071.62 778.37C1072.1 778.64 1072.71 778.47 1072.98 777.98L1220.58 512.75C1220.64 512.65 1220.67 512.54 1220.69 512.44V512.43Z" fill="white"/>
</g>
<g opacity="0.25">
<path d="M1475.76 268.99L1471.14 502.49C1471.14 502.54 1471.14 502.6 1471.12 502.65C1471.03 503.13 1470.61 503.49 1470.11 503.48C1469.56 503.47 1469.12 503.01 1469.13 502.45L1475.08 201.71C1475.09 201.28 1475.37 200.92 1475.75 200.79V268.99H1475.76Z" fill="white"/>
</g>
<g opacity="0.14">
<path d="M807.711 1268.76C807.791 1268.32 807.561 1267.87 807.141 1267.67C806.641 1267.44 806.04 1267.67 805.81 1268.17L611.61 1694.74C611.38 1695.25 611.61 1695.84 612.11 1696.07C612.61 1696.3 613.21 1696.07 613.44 1695.57L807.641 1269C807.68 1268.92 807.701 1268.84 807.711 1268.76Z" fill="white"/>
</g>
<g opacity="0.69">
<path d="M881.02 1589.22C881.04 1589.09 881.04 1588.96 881.01 1588.82L807.7 1268.36C807.58 1267.82 807.04 1267.48 806.5 1267.61C805.96 1267.73 805.62 1268.28 805.75 1268.81L879.06 1589.27C879.18 1589.81 879.72 1590.15 880.26 1590.02C880.66 1589.93 880.95 1589.6 881.02 1589.22Z" fill="white"/>
</g>
<g opacity="0.86">
<path d="M881.021 1589.22C881.051 1589.04 881.04 1588.85 880.97 1588.68C880.77 1588.16 880.18 1587.91 879.67 1588.11L612.16 1694.22C611.64 1694.43 611.4 1695.01 611.6 1695.53C611.81 1696.04 612.391 1696.3 612.901 1696.09L880.41 1589.98C880.75 1589.85 880.971 1589.55 881.031 1589.22H881.021Z" fill="white"/>
</g>
<g opacity="0.32">
<path d="M1475.76 203.7L1220.47 512.9C1220.12 513.33 1219.49 513.39 1219.06 513.03C1218.63 512.68 1218.57 512.05 1218.93 511.62L1475.32 201.09C1475.44 200.94 1475.6 200.86 1475.76 200.8V203.71V203.7Z" fill="white"/>
</g>
<g opacity="0.42">
<path d="M1283.55 774.81C1283.56 774.75 1283.57 774.69 1283.57 774.62C1283.57 774.07 1283.11 773.62 1282.56 773.63L1072.11 776.47C1071.55 776.47 1071.11 776.93 1071.12 777.49C1071.12 778.04 1071.58 778.49 1072.14 778.48L1282.59 775.63C1283.08 775.63 1283.48 775.27 1283.56 774.8L1283.55 774.81Z" fill="white"/>
</g>
<g opacity="0.16">
<path d="M836.79 189.16C836.25 189.03 835.91 188.51 836.06 187.95L882.23 0.0100098H884.29L838 188.43C837.87 188.97 837.32 189.3 836.79 189.16Z" fill="white"/>
</g>
<g opacity="0.07">
<path d="M1296.9 257.63L1108.75 0.0100098H1111.24L1298.53 256.44C1298.7 256.67 1298.75 256.95 1298.71 257.21C1298.67 257.46 1298.53 257.69 1298.32 257.85C1297.87 258.18 1297.24 258.08 1296.92 257.63H1296.9Z" fill="white"/>
</g>
<g opacity="0.61">
<path d="M1298.7 257.21C1298.79 256.72 1298.5 256.22 1298.01 256.07C1297.48 255.91 1296.92 256.21 1296.76 256.74L1218.76 511.96C1218.58 512.5 1218.89 513.05 1219.42 513.21C1219.95 513.37 1220.51 513.07 1220.67 512.54L1298.67 257.32C1298.67 257.32 1298.69 257.24 1298.7 257.2V257.21Z" fill="white"/>
</g>
<g opacity="0.22">
<path d="M836.431 188.99C835.991 188.66 835.901 188.03 836.231 187.58L976.981 0.0100098H979.491L837.831 188.79C837.501 189.23 836.871 189.32 836.431 188.99Z" fill="white"/>
</g>
<g opacity="0.54">
<path d="M1283.55 774.81C1283.57 774.68 1283.57 774.54 1283.54 774.4L1220.69 512.02C1220.56 511.48 1220.02 511.15 1219.48 511.28C1218.94 511.41 1218.61 511.95 1218.74 512.49L1281.6 774.87C1281.73 775.41 1282.27 775.74 1282.81 775.61C1283.21 775.51 1283.5 775.19 1283.56 774.81H1283.55Z" fill="white"/>
</g>
<g opacity="0.89">
<path d="M1106.81 1700.56C1106.89 1700.13 1106.68 1699.69 1106.27 1699.48L880.481 1588.14C879.981 1587.9 879.381 1588.1 879.141 1588.6C878.891 1589.09 879.101 1589.7 879.601 1589.94L1105.39 1701.28C1105.88 1701.52 1106.49 1701.32 1106.73 1700.82C1106.77 1700.73 1106.8 1700.64 1106.82 1700.55L1106.81 1700.56Z" fill="white"/>
</g>
<g opacity="0.19">
<path d="M836.06 188.44L787.92 0.0100098H789.99L838.01 187.94C838.05 188.08 838.05 188.23 838.03 188.36C837.96 188.74 837.69 189.06 837.29 189.16C836.75 189.3 836.21 188.97 836.07 188.44H836.06Z" fill="white"/>
</g>
<g opacity="0.47">
<path d="M893.191 1288.57C893.281 1288.05 892.951 1287.54 892.431 1287.42L806.961 1267.61C806.421 1267.48 805.881 1267.82 805.761 1268.36C805.591 1268.95 805.971 1269.44 806.511 1269.56L891.981 1289.37C892.521 1289.5 893.061 1289.16 893.181 1288.62C893.181 1288.6 893.181 1288.58 893.181 1288.57H893.191Z" fill="white"/>
</g>
<path d="M1475.76 202.88L1298 258C1297.47 258.16 1296.91 257.87 1296.75 257.34C1296.58 256.81 1296.88 256.25 1297.41 256.08L1475.76 200.78V202.88Z" fill="white"/>
<g opacity="0.25">
<path d="M881.02 1589.22C881.02 1589.22 881.03 1589.13 881.03 1589.08L893.19 1288.43C893.21 1287.88 892.78 1287.41 892.23 1287.39C891.68 1287.37 891.19 1287.8 891.19 1288.35L879.03 1589C879.01 1589.55 879.44 1590.02 879.99 1590.04C880.5 1590.06 880.93 1589.7 881.02 1589.21V1589.22Z" fill="white"/>
</g>
<g opacity="0.06">
<path d="M1189.63 1759.35C1189.7 1758.94 1189.51 1758.51 1189.12 1758.29L880.51 1588.16C880.03 1587.89 879.42 1588.07 879.15 1588.56C878.89 1589.05 879.06 1589.66 879.55 1589.92L1188.16 1760.04C1188.64 1760.31 1189.25 1760.13 1189.52 1759.64C1189.57 1759.54 1189.61 1759.44 1189.63 1759.33V1759.35Z" fill="white"/>
</g>
<g opacity="0.17">
<path d="M1298.7 257.21C1298.7 257.21 1298.7 257.19 1298.7 257.18C1298.78 256.63 1298.4 256.12 1297.86 256.04L837.18 187.19C836.63 187.11 836.11 187.54 836.04 188.03C835.96 188.58 836.34 189.09 836.88 189.17L1297.56 258.02C1298.1 258.1 1298.6 257.74 1298.7 257.2V257.21Z" fill="white"/>
</g>
<g opacity="0.86">
<path d="M1475.76 846.2V848.35L1282.2 775.58C1281.68 775.39 1281.41 774.81 1281.61 774.29C1281.8 773.77 1282.38 773.51 1282.9 773.7L1475.75 846.2H1475.76Z" fill="white"/>
</g>
<g opacity="0.19">
<path d="M605.821 10.44C605.341 10.16 605.19 9.54 605.47 9.06L610.821 0H613.151L607.191 10.08C606.911 10.56 606.291 10.71 605.821 10.43V10.44Z" fill="white"/>
</g>
<g opacity="0.61">
<path d="M838.021 188.36C838.041 188.26 838.041 188.16 838.021 188.05C837.951 187.5 837.441 187.11 836.891 187.19L484.491 234.54C483.941 234.61 483.551 235.11 483.631 235.67C483.701 236.22 484.211 236.61 484.761 236.53L837.171 189.18C837.611 189.12 837.951 188.78 838.021 188.36Z" fill="white"/>
</g>
<g opacity="0.31">
<path d="M1023.61 1605.28C1023.61 1605.28 1023.61 1605.23 1023.62 1605.21C1023.68 1604.66 1023.28 1604.16 1022.74 1604.1L880.15 1588.05C879.6 1587.99 879.08 1588.43 879.04 1588.94C878.98 1589.49 879.37 1589.99 879.92 1590.05L1022.51 1606.1C1023.04 1606.16 1023.52 1605.8 1023.61 1605.28Z" fill="white"/>
</g>
<g opacity="0.03">
<path d="M1106.81 1700.56C1106.85 1700.35 1106.81 1700.13 1106.71 1699.92L893.091 1287.92C892.831 1287.43 892.231 1287.24 891.741 1287.49C891.251 1287.75 891.061 1288.35 891.311 1288.84L1104.93 1700.84C1105.18 1701.33 1105.79 1701.52 1106.28 1701.27C1106.57 1701.12 1106.75 1700.85 1106.8 1700.55L1106.81 1700.56Z" fill="white"/>
</g>
<g opacity="0.4">
<path d="M1475.76 924.44L1211.61 1083.04C1211.14 1083.33 1210.52 1083.17 1210.24 1082.7C1209.95 1082.22 1210.11 1081.61 1210.58 1081.32L1475.76 922.1V924.44Z" fill="white"/>
</g>
<g opacity="0.74">
<path d="M1283.55 774.81C1283.64 774.29 1283.31 773.78 1282.79 773.66C1282.25 773.53 1281.71 773.87 1281.59 774.41L1210.13 1081.96C1209.96 1082.47 1210.34 1083.04 1210.88 1083.17C1211.42 1083.29 1211.96 1082.96 1212.08 1082.42L1283.54 774.87C1283.54 774.87 1283.54 774.83 1283.54 774.82L1283.55 774.81Z" fill="white"/>
</g>
<path d="M1189.63 1759.35C1189.69 1758.98 1189.55 1758.59 1189.22 1758.35L1106.4 1699.57C1105.95 1699.25 1105.32 1699.36 1105 1699.81C1104.68 1700.26 1104.79 1700.89 1105.24 1701.21L1188.06 1759.99C1188.51 1760.31 1189.14 1760.2 1189.46 1759.75C1189.55 1759.63 1189.6 1759.49 1189.63 1759.35Z" fill="white"/>
<g opacity="0.53">
<path d="M1298.7 257.21C1298.7 257.21 1298.7 257.15 1298.71 257.12C1298.76 256.57 1298.35 256.08 1297.8 256.03L976.391 227.51C975.841 227.46 975.361 227.87 975.301 228.42C975.251 228.97 975.661 229.46 976.211 229.51L1297.62 258.03C1298.14 258.08 1298.6 257.71 1298.69 257.21H1298.7Z" fill="white"/>
</g>
<g opacity="0.8">
<path d="M1106.81 1700.56C1106.86 1700.27 1106.79 1699.96 1106.58 1699.72L1023.38 1604.43C1023.02 1604.01 1022.38 1603.97 1021.97 1604.34C1021.56 1604.7 1021.51 1605.34 1021.88 1605.76L1105.08 1701.05C1105.44 1701.47 1106.08 1701.51 1106.49 1701.14C1106.67 1700.98 1106.78 1700.78 1106.82 1700.56H1106.81Z" fill="white"/>
</g>
<path d="M977.281 228.69C977.371 228.19 977.071 227.69 976.571 227.55L837.301 187.23C836.771 187.08 836.211 187.38 836.061 187.92C835.911 188.46 836.211 189.01 836.741 189.16L976.001 229.48C976.531 229.63 977.091 229.33 977.241 228.79C977.251 228.75 977.261 228.72 977.261 228.69H977.281Z" fill="white"/>
<g opacity="0.74">
<path d="M607.321 9.74999C607.391 9.32999 607.201 8.89999 606.811 8.68999C606.321 8.42999 605.711 8.60999 605.451 9.09999L483.751 235.06C483.481 235.54 483.67 236.16 484.15 236.42C484.64 236.68 485.251 236.5 485.511 236.01L607.211 10.05C607.261 9.94999 607.3 9.84999 607.311 9.74999H607.321Z" fill="white"/>
</g>
<g opacity="0.52">
<path d="M1212.09 1082.36C1212.13 1082.12 1212.09 1081.86 1211.95 1081.64C1211.65 1081.17 1211.03 1081.04 1210.56 1081.34L891.661 1287.55C891.201 1287.85 891.061 1288.47 891.361 1288.94C891.661 1289.41 892.281 1289.54 892.751 1289.24L1211.65 1083.03C1211.89 1082.87 1212.05 1082.63 1212.09 1082.36Z" fill="white"/>
</g>
<g opacity="0.67">
<path d="M838.021 188.36C838.081 188 837.951 187.62 837.651 187.39L606.951 8.77999C606.511 8.43999 605.881 8.51999 605.541 8.95999C605.201 9.39999 605.281 10.03 605.721 10.37L836.421 188.98C836.861 189.32 837.491 189.24 837.831 188.8C837.931 188.67 837.991 188.52 838.021 188.36Z" fill="white"/>
</g>
<g opacity="0.28">
<path d="M1475.76 857.77V859.83L1212.99 799.94C1212.45 799.82 1212.08 799.25 1212.23 798.74C1212.35 798.2 1212.89 797.86 1213.43 797.98L1475.76 857.77Z" fill="white"/>
</g>
<g opacity="0.03">
<path d="M1463.88 1658.54C1463.9 1658.45 1463.9 1658.35 1463.88 1658.25C1463.82 1657.7 1463.32 1657.3 1462.77 1657.37L1105.71 1699.4C1105.16 1699.47 1104.77 1699.97 1104.83 1700.51C1104.89 1701.06 1105.39 1701.46 1105.94 1701.39L1463.01 1659.36C1463.46 1659.31 1463.8 1658.96 1463.88 1658.54Z" fill="white"/>
</g>
<path d="M1283.55 774.81C1283.58 774.64 1283.57 774.47 1283.51 774.3C1283.33 773.78 1282.75 773.5 1282.23 773.68L1212.89 797.99C1212.37 798.17 1212.09 798.74 1212.28 799.27C1212.46 799.79 1213.03 800.07 1213.56 799.89L1282.9 775.58C1283.26 775.46 1283.5 775.15 1283.56 774.81H1283.55Z" fill="white"/>
<g opacity="0.13">
<path d="M1475.76 849.57V851.69L1199.44 759.71C1198.91 759.53 1198.65 758.97 1198.8 758.44C1198.98 757.91 1199.54 757.63 1200.07 757.8L1475.76 849.56V849.57Z" fill="white"/>
</g>
<g opacity="0.06">
<path d="M1475.76 2174.1L1325.12 2203.3C1324.58 2203.4 1324.05 2203.05 1323.94 2202.5C1323.84 2201.95 1324.19 2201.43 1324.73 2201.32L1475.75 2172.04V2174.09L1475.76 2174.1Z" fill="white"/>
</g>
<g opacity="0.86">
<path d="M1283.55 774.81C1283.65 774.27 1283.29 773.75 1282.75 773.65L1199.95 757.77C1199.41 757.67 1198.88 758.02 1198.78 758.57C1198.78 758.57 1198.78 758.57 1198.78 758.58C1198.68 759.12 1199.04 759.64 1199.58 759.74L1282.38 775.62C1282.92 775.72 1283.45 775.37 1283.55 774.82C1283.55 774.82 1283.55 774.82 1283.55 774.81Z" fill="white"/>
</g>
<g opacity="0.65">
<path d="M1023.61 1605.27C1023.64 1605.09 1023.63 1604.89 1023.55 1604.71L893.131 1288.01C892.921 1287.5 892.331 1287.25 891.821 1287.46C891.311 1287.67 891.071 1288.27 891.271 1288.77L1021.69 1605.47C1021.9 1605.98 1022.49 1606.23 1023 1606.02C1023.33 1605.88 1023.55 1605.59 1023.6 1605.27H1023.61Z" fill="white"/>
</g>
<g opacity="0.71">
<path d="M1212.09 1082.36C1212.1 1082.3 1212.11 1082.25 1212.11 1082.19L1214.23 798.95C1214.23 798.4 1213.79 797.94 1213.23 797.94C1212.68 797.94 1212.23 798.39 1212.22 798.94L1210.1 1082.18C1210.1 1082.73 1210.54 1083.19 1211.1 1083.19C1211.6 1083.19 1212.01 1082.84 1212.09 1082.36Z" fill="white"/>
</g>
<g opacity="0.33">
<path d="M977.281 228.69C977.351 228.29 977.171 227.87 976.801 227.65L606.841 8.70999C606.361 8.42999 605.751 8.58999 605.471 9.05999C605.191 9.53999 605.351 10.15 605.821 10.43L975.791 229.36C976.271 229.64 976.881 229.48 977.161 229.01C977.221 228.9 977.261 228.79 977.281 228.67V228.69Z" fill="white"/>
</g>
<g opacity="0.5">
<path d="M1212.09 1082.36C1212.1 1082.29 1212.11 1082.22 1212.11 1082.15L1200.77 758.72C1200.75 758.17 1200.28 757.73 1199.73 757.75C1199.18 757.77 1198.75 758.24 1198.76 758.79L1210.1 1082.22C1210.12 1082.77 1210.58 1083.21 1211.14 1083.19C1211.62 1083.17 1212.01 1082.82 1212.09 1082.36Z" fill="white"/>
</g>
<g opacity="0.72">
<path d="M1212.09 1082.36C1212.18 1081.85 1211.87 1081.35 1211.36 1081.21C1210.82 1081.07 1210.28 1081.39 1210.14 1081.93L1141.73 1344.68C1141.6 1345.21 1141.91 1345.77 1142.44 1345.9C1142.98 1346.04 1143.52 1345.72 1143.66 1345.18L1212.07 1082.42C1212.07 1082.42 1212.08 1082.37 1212.09 1082.34V1082.36Z" fill="white"/>
</g>
<g opacity="0.09">
<path d="M1457.49 420.44C1457.54 420.13 1457.46 419.8 1457.22 419.56L1298.42 256.33C1298.04 255.93 1297.4 255.92 1297 256.31C1296.6 256.7 1296.6 257.33 1296.98 257.73L1455.78 420.96C1456.16 421.36 1456.8 421.37 1457.2 420.98C1457.36 420.83 1457.45 420.64 1457.49 420.44Z" fill="white"/>
</g>
<path d="M1189.63 1759.35C1189.69 1759.03 1189.58 1758.68 1189.32 1758.44L1023.3 1604.37C1022.89 1603.99 1022.26 1604.02 1021.88 1604.42C1021.5 1604.83 1021.53 1605.46 1021.93 1605.84L1187.95 1759.91C1188.36 1760.29 1188.99 1760.26 1189.37 1759.85C1189.51 1759.7 1189.59 1759.53 1189.62 1759.34L1189.63 1759.35Z" fill="white"/>
<g opacity="0.8">
<path d="M1143.67 1345.12C1143.76 1344.59 1143.43 1344.08 1142.9 1343.96L892.421 1287.41C891.881 1287.29 891.34 1287.63 891.22 1288.17C891.06 1288.79 891.441 1289.25 891.981 1289.37L1142.46 1345.92C1143 1346.04 1143.54 1345.7 1143.66 1345.16C1143.66 1345.14 1143.66 1345.13 1143.67 1345.12Z" fill="white"/>
</g>
<g opacity="0.21">
<path d="M1325.92 2202.49C1325.95 2202.34 1325.94 2202.18 1325.89 2202.02L1189.61 1758.87C1189.45 1758.34 1188.89 1758.04 1188.36 1758.21C1187.83 1758.37 1187.53 1758.94 1187.7 1759.47L1323.99 2202.62C1324.15 2203.15 1324.71 2203.45 1325.24 2203.28C1325.61 2203.17 1325.87 2202.85 1325.93 2202.5L1325.92 2202.49Z" fill="white"/>
</g>
<g opacity="0.29">
<path d="M1189.63 1759.35C1189.65 1759.26 1189.65 1759.16 1189.63 1759.06L1143.67 1344.83C1143.61 1344.28 1143.11 1343.88 1142.56 1343.94C1142.01 1344 1141.62 1344.5 1141.68 1345.05L1187.64 1759.28C1187.7 1759.83 1188.2 1760.23 1188.75 1760.17C1189.2 1760.12 1189.55 1759.77 1189.63 1759.35Z" fill="white"/>
</g>
<g opacity="0.76">
<path d="M1463.88 1658.54C1463.91 1658.37 1463.9 1658.19 1463.83 1658.02C1463.64 1657.5 1463.07 1657.23 1462.54 1657.42L1188.3 1758.23C1187.78 1758.42 1187.51 1759 1187.71 1759.52C1187.9 1760.04 1188.47 1760.31 1189 1760.12L1463.24 1659.31C1463.59 1659.18 1463.82 1658.88 1463.88 1658.54Z" fill="white"/>
</g>
<g opacity="0.13">
<path d="M893.19 1288.57C893.29 1288.03 892.93 1287.51 892.39 1287.41C891.85 1287.31 891.32 1287.67 891.22 1288.21L814.57 1701.04C814.47 1701.58 814.83 1702.1 815.37 1702.2C815.92 1702.3 816.44 1701.94 816.54 1701.4L893.19 1288.57Z" fill="white"/>
</g>
<g opacity="0.84">
<path d="M1143.67 1345.12C1143.75 1344.68 1143.53 1344.23 1143.1 1344.03C1142.6 1343.8 1142 1344.02 1141.77 1344.52L1021.71 1604.68C1021.47 1605.17 1021.7 1605.78 1022.2 1606.01C1022.7 1606.24 1023.3 1606.02 1023.53 1605.52L1143.59 1345.36C1143.63 1345.28 1143.65 1345.2 1143.67 1345.12Z" fill="white"/>
</g>
<g opacity="0.2">
<path d="M1212.09 1082.36C1212.11 1082.27 1212.11 1082.17 1212.1 1082.07C1212.04 1081.52 1211.54 1081.12 1210.99 1081.18L896.27 1117C895.72 1117.06 895.33 1117.56 895.39 1118.11C895.45 1118.66 895.95 1119.06 896.5 1118.99L1211.22 1083.17C1211.67 1083.12 1212.02 1082.77 1212.09 1082.35V1082.36Z" fill="white"/>
</g>
<g opacity="0.27">
<path d="M1463.88 1658.54C1463.88 1658.54 1463.88 1658.5 1463.88 1658.48C1463.95 1657.93 1463.56 1657.43 1463 1657.36L1022.74 1604.09C1022.19 1604.03 1021.68 1604.39 1021.63 1604.97C1021.56 1605.52 1021.96 1606.02 1022.51 1606.09L1462.77 1659.36C1463.3 1659.42 1463.78 1659.06 1463.88 1658.54Z" fill="white"/>
</g>
<path d="M1214.2 799.13C1214.23 798.97 1214.22 798.8 1214.16 798.64L1200.7 758.45C1200.53 757.92 1199.96 757.64 1199.43 757.82C1198.9 758 1198.62 758.56 1198.8 759.09L1212.26 799.28C1212.43 799.8 1213 800.09 1213.53 799.91C1213.89 799.79 1214.14 799.48 1214.2 799.13Z" fill="white"/>
<g opacity="0.59">
<path d="M893.19 1288.57C893.19 1288.57 893.2 1288.47 893.21 1288.42L897.38 1118.04C897.4 1117.49 896.96 1117.02 896.4 1117.01C895.85 1117 895.38 1117.44 895.37 1117.99L891.2 1288.37C891.19 1288.93 891.62 1289.39 892.18 1289.4C892.68 1289.41 893.11 1289.05 893.19 1288.57Z" fill="white"/>
</g>
<g opacity="0.31">
<path d="M1189.63 1759.35C1189.63 1759.35 1189.63 1759.34 1189.63 1759.33C1189.72 1758.78 1189.34 1758.27 1188.79 1758.18L815.69 1700.23C815.14 1700.14 814.67 1700.51 814.55 1701.07C814.46 1701.62 814.84 1702.13 815.39 1702.22L1188.49 1760.17C1189.03 1760.25 1189.54 1759.89 1189.63 1759.35Z" fill="white"/>
</g>
<g opacity="0.58">
<path d="M905.891 1406.05C905.911 1405.96 905.911 1405.86 905.901 1405.77L893.201 1288.29C893.141 1287.74 892.641 1287.34 892.091 1287.4C891.541 1287.46 891.151 1287.95 891.201 1288.51L903.901 1405.99C903.961 1406.54 904.451 1406.94 905.001 1406.88C905.451 1406.83 905.801 1406.48 905.881 1406.06L905.891 1406.05Z" fill="white"/>
</g>
<g opacity="0.29">
<path d="M1463.88 1658.54C1463.94 1658.23 1463.84 1657.89 1463.59 1657.65L1143.38 1344.23C1142.98 1343.84 1142.35 1343.85 1141.96 1344.25C1141.58 1344.64 1141.58 1345.28 1141.98 1345.67L1462.19 1659.09C1462.59 1659.48 1463.22 1659.47 1463.61 1659.07C1463.76 1658.92 1463.85 1658.74 1463.88 1658.54Z" fill="white"/>
</g>
<g opacity="0.91">
<path d="M1023.61 1605.27C1023.65 1605.07 1023.62 1604.87 1023.53 1604.67C1023.3 1604.17 1022.7 1603.95 1022.2 1604.18L815.12 1700.31C814.61 1700.54 814.4 1701.15 814.63 1701.64C814.86 1702.14 815.46 1702.36 815.96 1702.13L1023.04 1606C1023.35 1605.86 1023.55 1605.57 1023.61 1605.26V1605.27Z" fill="white"/>
</g>
<g opacity="0.12">
<path d="M1297.29 927.06C1297.36 926.65 1297.17 926.22 1296.79 926C1296.31 925.73 1295.7 925.91 1295.43 926.4L1210.23 1081.7C1209.97 1082.19 1210.14 1082.8 1210.63 1083.07C1211.11 1083.34 1211.72 1083.16 1211.99 1082.67L1297.19 927.37C1297.24 927.27 1297.28 927.17 1297.3 927.06H1297.29Z" fill="white"/>
</g>
<g opacity="0.21">
<path d="M975.51 229.13L796.07 0.0100098H798.62L977.09 227.89C977.27 228.12 977.34 228.42 977.29 228.69C977.25 228.93 977.12 229.15 976.92 229.3C976.48 229.64 975.85 229.57 975.51 229.13Z" fill="white"/>
</g>
<g opacity="0.17">
<path d="M1457.49 420.44C1457.56 420.05 1457.4 419.65 1457.05 419.42C1456.58 419.12 1455.96 419.26 1455.66 419.72L1212.37 798.41C1212.07 798.87 1212.21 799.5 1212.67 799.8C1213.13 800.1 1213.76 799.97 1214.05 799.5L1457.34 420.81C1457.41 420.7 1457.46 420.57 1457.49 420.44Z" fill="white"/>
</g>
<g opacity="0.73">
<path d="M605.381 9.88001C605.211 9.35001 605.511 8.79001 606.041 8.62001L633.431 0.0100098H640.131L606.651 10.54C606.121 10.71 605.561 10.41 605.391 9.88001H605.381Z" fill="white"/>
</g>
<g opacity="0.17">
<path d="M1214.2 799.13C1214.25 798.82 1214.16 798.48 1213.92 798.24C1213.53 797.85 1212.89 797.85 1212.5 798.24L895.661 1117.3C895.271 1117.7 895.271 1118.33 895.661 1118.72C896.051 1119.11 896.691 1119.11 897.081 1118.72L1213.92 799.66C1214.07 799.51 1214.16 799.32 1214.2 799.13Z" fill="white"/>
</g>
<g opacity="0.13">
<path d="M1143.67 1345.12C1143.73 1344.79 1143.62 1344.45 1143.36 1344.2C1142.95 1343.82 1142.32 1343.85 1141.94 1344.26L814.8 1700.54C814.43 1700.95 814.45 1701.58 814.86 1701.96C815.27 1702.33 815.9 1702.31 816.28 1701.9L1143.42 1345.62C1143.55 1345.47 1143.64 1345.3 1143.67 1345.12Z" fill="white"/>
</g>
<g opacity="0.63">
<path d="M1023.61 1605.27C1023.65 1605.04 1023.61 1604.8 1023.49 1604.58L905.771 1405.35C905.491 1404.87 904.871 1404.71 904.401 1405C903.921 1405.28 903.771 1405.9 904.051 1406.38L1021.77 1605.61C1022.05 1606.09 1022.67 1606.25 1023.14 1605.96C1023.4 1605.81 1023.57 1605.55 1023.62 1605.27H1023.61Z" fill="white"/>
</g>
<g opacity="0.3">
<path d="M1457.49 420.44C1457.55 420.08 1457.42 419.7 1457.11 419.46C1456.67 419.12 1456.04 419.21 1455.7 419.65L1198.95 758.15C1198.61 758.59 1198.7 759.22 1199.14 759.56C1199.58 759.9 1200.21 759.81 1200.55 759.37L1457.3 420.87C1457.4 420.74 1457.46 420.59 1457.49 420.44Z" fill="white"/>
</g>
<g opacity="0.14">
<path d="M1200.75 758.94C1200.81 758.6 1200.69 758.24 1200.41 758C1199.99 757.64 1199.35 757.7 1199 758.12L895.611 1117.37C895.251 1117.79 895.301 1118.43 895.731 1118.79C896.151 1119.15 896.791 1119.1 897.141 1118.67L1200.53 759.42C1200.65 759.28 1200.72 759.12 1200.75 758.95V758.94Z" fill="white"/>
</g>
<g opacity="0.51">
<path d="M1475.76 673.64L1213.65 799.86C1213.15 800.1 1212.55 799.89 1212.31 799.39C1212.07 798.89 1212.28 798.29 1212.78 798.05L1475.76 671.42V673.65V673.64Z" fill="white"/>
</g>
<g opacity="0.6">
<path d="M1143.67 1345.12C1143.73 1344.79 1143.62 1344.45 1143.36 1344.2L897.05 1117.27C896.64 1116.89 896.01 1116.92 895.63 1117.33C895.26 1117.74 895.28 1118.37 895.69 1118.75L1142 1345.68C1142.41 1346.06 1143.04 1346.03 1143.42 1345.62C1143.55 1345.47 1143.64 1345.3 1143.67 1345.12Z" fill="white"/>
</g>
<g opacity="0.59">
<path d="M1475.76 668.45L1200.07 759.71C1199.54 759.89 1198.98 759.6 1198.8 759.07C1198.63 758.54 1198.91 757.98 1199.44 757.8L1475.76 666.33V668.45Z" fill="white"/>
</g>
<g opacity="0.85">
<path d="M1143.67 1345.12C1143.69 1344.98 1143.69 1344.84 1143.65 1344.69C1143.51 1344.15 1142.97 1343.83 1142.43 1343.97L904.65 1404.9C904.12 1405.04 903.8 1405.59 903.93 1406.12C904.07 1406.66 904.61 1406.98 905.15 1406.84L1142.93 1345.91C1143.32 1345.81 1143.6 1345.49 1143.67 1345.11V1345.12Z" fill="white"/>
</g>
<g opacity="0.79">
<path d="M1297.29 927.06C1297.33 926.82 1297.29 926.56 1297.14 926.34L1214.06 798.4C1213.76 797.93 1213.14 797.8 1212.67 798.11C1212.21 798.41 1212.07 799.03 1212.38 799.5L1295.46 927.43C1295.76 927.9 1296.38 928.03 1296.85 927.72C1297.09 927.56 1297.24 927.32 1297.29 927.06Z" fill="white"/>
</g>
<g opacity="0.19">
<path d="M1215.88 1861.71C1215.9 1861.57 1215.9 1861.43 1215.86 1861.29L1189.62 1758.93C1189.48 1758.39 1188.93 1758.07 1188.4 1758.21C1187.86 1758.35 1187.54 1758.9 1187.68 1759.43L1213.92 1861.79C1214.06 1862.33 1214.6 1862.65 1215.14 1862.51C1215.53 1862.41 1215.81 1862.09 1215.88 1861.71Z" fill="white"/>
</g>
<g opacity="0.81">
<path d="M1297.29 927.06C1297.33 926.84 1297.29 926.6 1297.17 926.38L1200.63 758.25C1200.35 757.77 1199.74 757.6 1199.26 757.88C1198.78 758.16 1198.61 758.77 1198.89 759.25L1295.43 927.38C1295.7 927.86 1296.32 928.03 1296.8 927.75C1297.07 927.6 1297.24 927.34 1297.29 927.05V927.06Z" fill="white"/>
</g>
<g opacity="0.03">
<path d="M1297.29 927.06C1297.37 926.59 1297.11 926.11 1296.65 925.94C1296.13 925.75 1295.55 926.02 1295.36 926.54L1141.75 1344.6C1141.56 1345.11 1141.82 1345.7 1142.34 1345.89C1142.86 1346.08 1143.44 1345.81 1143.63 1345.29L1297.25 927.24C1297.27 927.18 1297.29 927.13 1297.3 927.07L1297.29 927.06Z" fill="white"/>
</g>
<g opacity="0.04">
<path d="M1215.88 1861.71C1215.93 1861.45 1215.87 1861.16 1215.69 1860.93L1023.42 1604.5C1023.09 1604.06 1022.46 1603.97 1022.02 1604.3C1021.58 1604.63 1021.49 1605.26 1021.82 1605.7L1214.09 1862.13C1214.42 1862.57 1215.05 1862.66 1215.49 1862.33C1215.7 1862.17 1215.83 1861.94 1215.88 1861.7V1861.71Z" fill="white"/>
</g>
<g opacity="0.76">
<path d="M905.891 1406.05C905.981 1405.56 905.681 1405.06 905.191 1404.92C904.661 1404.76 904.101 1405.06 903.941 1405.59L814.581 1700.94C814.411 1701.46 814.711 1702.03 815.251 1702.19C815.781 1702.35 816.341 1702.05 816.501 1701.52L905.861 1406.17C905.861 1406.17 905.881 1406.09 905.891 1406.05Z" fill="white"/>
</g>
<path d="M1457.48 420.04L1475.76 500.84V509.93L1455.52 420.48C1455.4 419.94 1455.74 419.4 1456.28 419.28C1456.82 419.16 1457.36 419.5 1457.48 420.04Z" fill="white"/>
<g opacity="0.91">
<path d="M905.89 1406.05C905.9 1405.98 905.91 1405.91 905.91 1405.84L897.38 1117.98C897.37 1117.43 896.9 1116.99 896.35 1117.01C895.8 1117.03 895.35 1117.48 895.38 1118.04L903.91 1405.9C903.93 1406.45 904.39 1406.89 904.94 1406.87C905.42 1406.86 905.81 1406.5 905.89 1406.04V1406.05Z" fill="white"/>
</g>
<g opacity="0.13">
<path d="M1045.83 1510.15C1045.92 1509.63 1045.59 1509.12 1045.07 1509C1044.53 1508.87 1043.99 1509.21 1043.87 1509.75L1021.65 1604.87C1021.49 1605.47 1021.86 1605.95 1022.4 1606.08C1022.94 1606.21 1023.48 1605.87 1023.6 1605.33L1045.82 1510.21C1045.82 1510.21 1045.82 1510.17 1045.83 1510.16V1510.15Z" fill="white"/>
</g>
<g opacity="0.15">
<path d="M1428.27 706.14C1428.3 705.95 1428.28 705.75 1428.2 705.57C1427.98 705.06 1427.39 704.83 1426.88 705.05L1212.81 798.03C1212.3 798.25 1212.07 798.84 1212.29 799.35C1212.51 799.86 1213.1 800.09 1213.61 799.87L1427.68 706.89C1428 706.75 1428.21 706.46 1428.27 706.14Z" fill="white"/>
</g>
<g opacity="0.26">
<path d="M1463.88 1658.54C1463.93 1658.26 1463.86 1657.97 1463.67 1657.73C1463.32 1657.3 1462.69 1657.24 1462.26 1657.59L1214.26 1860.76C1213.83 1861.12 1213.77 1861.75 1214.12 1862.17C1214.47 1862.6 1215.1 1862.66 1215.53 1862.31L1463.53 1659.14C1463.72 1658.98 1463.84 1658.76 1463.88 1658.54Z" fill="white"/>
</g>
<g opacity="0.27">
<path d="M1428.27 706.14C1428.29 706.01 1428.29 705.87 1428.26 705.74C1428.13 705.2 1427.6 704.86 1427.06 704.99L1199.54 757.78C1199 757.91 1198.66 758.45 1198.79 758.99C1198.91 759.53 1199.45 759.87 1199.99 759.74L1427.51 706.95C1427.91 706.86 1428.2 706.53 1428.27 706.15V706.14Z" fill="white"/>
</g>
<g opacity="0.26">
<path d="M1297.29 927.06C1297.33 926.86 1297.3 926.65 1297.21 926.45C1296.97 925.95 1296.37 925.74 1295.87 925.98L895.951 1117.1C895.451 1117.34 895.241 1117.94 895.481 1118.44C895.721 1118.94 896.321 1119.15 896.811 1118.91L1296.74 927.79C1297.04 927.64 1297.24 927.37 1297.29 927.06Z" fill="white"/>
</g>
<g opacity="0.37">
<path d="M1143.67 1345.12C1143.74 1344.72 1143.56 1344.3 1143.19 1344.08C1142.71 1343.8 1142.1 1343.95 1141.82 1344.43L1043.98 1509.46C1043.7 1509.93 1043.85 1510.55 1044.33 1510.84C1044.8 1511.12 1045.42 1510.97 1045.7 1510.49L1143.54 1345.46C1143.6 1345.35 1143.64 1345.24 1143.67 1345.12Z" fill="white"/>
</g>
<g opacity="0.46">
<path d="M1475.76 1653.91L1463.28 1659.28C1462.77 1659.5 1462.18 1659.26 1461.96 1658.75C1461.74 1658.25 1461.97 1657.65 1462.49 1657.43L1475.76 1651.72V1653.91Z" fill="white"/>
</g>
<g opacity="0.67">
<path d="M1475.76 700.96L1297.08 927.51C1296.74 927.95 1296.11 928.02 1295.67 927.68C1295.24 927.34 1295.17 926.71 1295.51 926.27L1475.76 697.73V700.97V700.96Z" fill="white"/>
</g>
<g opacity="0.15">
<path d="M1215.88 1861.7C1215.96 1861.24 1215.71 1860.77 1215.27 1860.6L815.931 1700.29C815.421 1700.08 814.831 1700.33 814.631 1700.85C814.411 1701.35 814.671 1701.95 815.191 1702.16L1214.53 1862.47C1215.04 1862.68 1215.63 1862.43 1215.83 1861.91C1215.86 1861.85 1215.87 1861.78 1215.89 1861.71L1215.88 1861.7Z" fill="white"/>
</g>
<g opacity="0.37">
<path d="M1045.83 1510.15C1045.88 1509.87 1045.81 1509.57 1045.61 1509.33C1045.26 1508.9 1044.62 1508.85 1044.2 1509.2L814.9 1700.45C814.48 1700.8 814.41 1701.44 814.77 1701.86C815.12 1702.29 815.76 1702.34 816.18 1701.99L1045.48 1510.74C1045.67 1510.58 1045.79 1510.37 1045.83 1510.14V1510.15Z" fill="white"/>
</g>
<g opacity="0.54">
<path d="M1428.27 706.15C1428.27 706.15 1428.27 706.1 1428.28 706.08L1457.5 420.37C1457.56 419.82 1457.16 419.32 1456.6 419.27C1456.05 419.21 1455.54 419.62 1455.5 420.17L1426.28 705.88C1426.22 706.43 1426.62 706.93 1427.18 706.98C1427.7 707.03 1428.18 706.67 1428.27 706.16V706.15Z" fill="white"/>
</g>
<g opacity="0.2">
<path d="M1045.83 1510.15C1045.86 1509.98 1045.85 1509.79 1045.78 1509.62L897.311 1117.65C897.111 1117.13 896.531 1116.87 896.011 1117.07C895.491 1117.27 895.231 1117.85 895.431 1118.36L1043.9 1510.33C1044.1 1510.85 1044.68 1511.11 1045.19 1510.91C1045.53 1510.78 1045.76 1510.48 1045.82 1510.15H1045.83Z" fill="white"/>
</g>
<path d="M1475.76 677.87L1427.8 706.83C1427.33 707.12 1426.71 706.96 1426.42 706.49C1426.14 706.02 1426.29 705.4 1426.76 705.11L1475.76 675.52V677.87Z" fill="white"/>
<g opacity="0.98">
<path d="M1045.83 1510.15C1045.89 1509.79 1045.76 1509.4 1045.44 1509.17L905.501 1405.07C905.051 1404.74 904.431 1404.83 904.101 1405.28C903.771 1405.73 903.861 1406.36 904.311 1406.69L1044.25 1510.79C1044.7 1511.12 1045.32 1511.03 1045.65 1510.58C1045.75 1510.45 1045.81 1510.3 1045.83 1510.16V1510.15Z" fill="white"/>
</g>
<g opacity="0.55">
<path d="M1457.5 420.12L1475.76 549.51V553.05C1475.62 553.16 1475.47 553.26 1475.28 553.29C1474.73 553.37 1474.22 552.99 1474.15 552.44L1455.51 420.41C1455.43 419.86 1455.81 419.35 1456.36 419.28C1456.91 419.2 1457.42 419.58 1457.49 420.13L1457.5 420.12Z" fill="white"/>
</g>
<g opacity="0.89">
<path d="M1428.27 706.14C1428.34 705.74 1428.16 705.32 1427.79 705.1C1427.32 704.82 1426.7 704.97 1426.42 705.45L1295.44 926.37C1295.15 926.85 1295.31 927.46 1295.79 927.75C1296.27 928.03 1296.88 927.88 1297.16 927.4L1428.14 706.48C1428.2 706.37 1428.25 706.26 1428.27 706.14Z" fill="white"/>
</g>
<g opacity="0.19">
<path d="M1475.76 551.57V553.32L1297.2 927.32C1296.96 927.82 1296.36 928.03 1295.86 927.79C1295.36 927.55 1295.15 926.94 1295.39 926.45L1474.23 551.85C1474.47 551.35 1475.07 551.14 1475.57 551.38C1475.65 551.42 1475.69 551.51 1475.76 551.56V551.57Z" fill="white"/>
</g>
<g opacity="0.18">
<path d="M1475.76 1687.88L1215.44 1862.36C1214.98 1862.67 1214.36 1862.55 1214.05 1862.08C1213.74 1861.62 1213.87 1861 1214.33 1860.69L1475.76 1685.46V1687.88Z" fill="white"/>
</g>
<g opacity="0.52">
<path d="M1215.88 1861.71C1215.92 1861.51 1215.89 1861.29 1215.8 1861.1L1045.76 1509.55C1045.52 1509.05 1044.92 1508.84 1044.42 1509.08C1043.92 1509.32 1043.72 1509.93 1043.95 1510.42L1213.99 1861.98C1214.23 1862.48 1214.83 1862.69 1215.33 1862.45C1215.63 1862.3 1215.83 1862.03 1215.88 1861.72V1861.71Z" fill="white"/>
</g>
<path d="M1475.76 551.5V553.67L1428.24 706.27C1428.07 706.8 1427.51 707.09 1426.98 706.93C1426.45 706.76 1426.15 706.21 1426.32 705.67L1474.18 551.99C1474.35 551.46 1474.91 551.16 1475.44 551.33C1475.56 551.37 1475.67 551.43 1475.76 551.5Z" fill="white"/>
<g opacity="0.07">
<path d="M1475.76 1517.04V1519.3L1409.71 1484.77C1409.22 1484.52 1409.03 1483.91 1409.29 1483.42C1409.55 1482.93 1410.15 1482.74 1410.64 1482.99L1475.76 1517.04Z" fill="white"/>
</g>
<g opacity="0.12">
<path d="M1428.27 706.14C1428.29 706.03 1428.29 705.91 1428.27 705.79C1428.18 705.24 1427.66 704.88 1427.11 704.97L1268.82 732.52C1268.28 732.62 1267.91 733.14 1268 733.68C1268.09 734.23 1268.61 734.59 1269.16 734.5L1427.45 706.95C1427.88 706.88 1428.19 706.54 1428.26 706.14H1428.27Z" fill="white"/>
</g>
<g opacity="0.14">
<path d="M900.37 569.97C900.38 569.9 900.39 569.83 900.39 569.76L888.29 226.44C888.27 225.89 887.8 225.45 887.25 225.47C886.7 225.49 886.27 225.95 886.28 226.51L898.38 569.83C898.4 570.38 898.87 570.82 899.42 570.8C899.9 570.78 900.29 570.43 900.37 569.97Z" fill="white"/>
</g>
<g opacity="0.27">
<path d="M1475.76 553.08L1269.65 734.28C1269.23 734.64 1268.6 734.6 1268.23 734.19C1267.87 733.77 1267.91 733.14 1268.32 732.77L1474.47 551.54C1474.84 551.21 1475.38 551.23 1475.75 551.54V553.1L1475.76 553.08Z" fill="white"/>
</g>
<g opacity="0.54">
<path d="M886.28 226.43L895.23 0.0100098H897.23L888.28 226.51C888.28 226.51 888.28 226.6 888.27 226.65C888.18 227.14 887.75 227.5 887.24 227.48C886.69 227.46 886.26 226.99 886.28 226.44V226.43Z" fill="white"/>
</g>
<g opacity="0.52">
<path d="M886.431 227L746.701 0.0100098H749.061L888.131 225.94C888.261 226.16 888.311 226.41 888.261 226.64C888.211 226.91 888.051 227.16 887.801 227.32C887.331 227.61 886.711 227.46 886.421 226.99L886.431 227Z" fill="white"/>
</g>
<g opacity="0.47">
<path d="M1475.76 1362.82L1411.06 1484.36C1410.8 1484.85 1410.19 1485.04 1409.7 1484.77C1409.21 1484.51 1409.02 1483.9 1409.29 1483.41L1475.76 1358.55V1362.82Z" fill="white"/>
</g>
<g opacity="0.14">
<path d="M1475.76 977.12V980.23L1268.22 734.17C1267.86 733.75 1267.92 733.11 1268.34 732.76C1268.76 732.4 1269.4 732.45 1269.75 732.88L1475.75 977.12H1475.76Z" fill="white"/>
</g>
<g opacity="0.99">
<path d="M1475.76 1534.7V1537.27L1409.55 1484.67C1409.11 1484.32 1409.05 1483.69 1409.39 1483.26C1409.73 1482.83 1410.37 1482.75 1410.8 1483.1L1475.76 1534.71V1534.7Z" fill="white"/>
</g>
<g opacity="0.16">
<path d="M1475.76 640.82L1269.4 734.44C1268.89 734.67 1268.3 734.44 1268.07 733.94C1267.84 733.43 1268.07 732.84 1268.57 732.61L1475.75 638.61V640.82H1475.76Z" fill="white"/>
</g>
<g opacity="0.55">
<path d="M1362.74 594.54C1362.81 594.16 1362.65 593.76 1362.31 593.53C1361.85 593.22 1361.23 593.35 1360.92 593.81L1268.16 732.96C1267.86 733.43 1267.98 734.05 1268.44 734.35C1268.9 734.66 1269.52 734.53 1269.83 734.07L1362.59 594.92C1362.67 594.8 1362.72 594.67 1362.74 594.54Z" fill="white"/>
</g>
<g opacity="0.22">
<path d="M1475.76 1486.1L1410.15 1484.89C1409.6 1484.88 1409.16 1484.42 1409.17 1483.87C1409.18 1483.33 1409.64 1482.87 1410.19 1482.88L1475.76 1484.09V1486.1Z" fill="white"/>
</g>
<g opacity="0.03">
<path d="M1422.53 467.49C1422.6 467.08 1422.42 466.66 1422.04 466.44C1421.56 466.16 1420.95 466.33 1420.67 466.81L1268.12 733.01C1267.85 733.49 1268.01 734.1 1268.49 734.38C1268.97 734.66 1269.58 734.49 1269.86 734.01L1422.41 467.81C1422.47 467.71 1422.51 467.6 1422.53 467.49Z" fill="white"/>
</g>
<g opacity="0.76">
<path d="M1475.76 578.25L1361.89 595.36C1361.34 595.44 1360.83 595.07 1360.75 594.52C1360.67 593.97 1361.05 593.46 1361.59 593.38L1475.75 576.23V578.26L1475.76 578.25Z" fill="white"/>
</g>
<g opacity="0.75">
<path d="M1475.76 482.74V484.84L1421.25 468.28C1420.72 468.12 1420.4 467.56 1420.58 467.03C1420.74 466.5 1421.3 466.2 1421.83 466.36L1475.76 482.74Z" fill="white"/>
</g>
<g opacity="0.09">
<path d="M384.121 165.72C383.581 165.58 383.251 165.04 383.391 164.5L424.851 0.0100098H426.921L385.341 164.99C385.201 165.53 384.661 165.85 384.121 165.72Z" fill="white"/>
</g>
<path d="M1422.53 467.49C1422.61 467.06 1422.39 466.6 1421.97 466.41C1421.47 466.17 1420.87 466.39 1420.64 466.89L1360.85 593.94C1360.62 594.44 1360.83 595.04 1361.33 595.28C1361.83 595.52 1362.43 595.3 1362.66 594.8L1422.45 467.75C1422.49 467.67 1422.52 467.58 1422.53 467.5V467.49Z" fill="white"/>
<g opacity="0.18">
<path d="M383.74 165.54C383.3 165.2 383.23 164.56 383.58 164.13L513.24 0.0100098H515.8L385.15 165.37C384.81 165.8 384.18 165.88 383.74 165.53V165.54Z" fill="white"/>
</g>
<g opacity="0.2">
<path d="M1475.76 2080.98L1380.47 2163.95C1380.05 2164.31 1379.42 2164.27 1379.06 2163.85C1378.7 2163.43 1378.74 2162.8 1379.16 2162.43L1475.76 2078.32V2080.98Z" fill="white"/>
</g>
<g opacity="0.19">
<path d="M383.391 165L341.471 0.0100098H343.541L385.331 164.5C385.371 164.64 385.371 164.79 385.341 164.92C385.271 165.3 385.001 165.62 384.601 165.72C384.061 165.86 383.521 165.53 383.381 164.99L383.391 165Z" fill="white"/>
</g>
<g opacity="0.17">
<path d="M459.28 1930.18C459.31 1930 459.3 1929.8 459.22 1929.62L256.27 1448.03C256.05 1447.52 255.47 1447.28 254.96 1447.5C254.45 1447.72 254.21 1448.31 254.43 1448.82L457.38 1930.41C457.6 1930.92 458.18 1931.16 458.69 1930.94C459.02 1930.8 459.23 1930.51 459.29 1930.19L459.28 1930.18Z" fill="white"/>
</g>
<g opacity="0.16">
<path d="M1380.8 2163.36C1380.82 2163.23 1380.82 2163.09 1380.79 2162.94C1380.66 2162.4 1380.11 2162.07 1379.58 2162.21L929.78 2273.76C929.24 2273.89 928.92 2274.44 929.05 2274.98C929.18 2275.52 929.73 2275.85 930.26 2275.71L1380.06 2164.16C1380.46 2164.06 1380.74 2163.74 1380.81 2163.36H1380.8Z" fill="white"/>
</g>
<g opacity="0.32">
<path d="M1354.64 1514.49C1354.66 1514.41 1354.66 1514.31 1354.65 1514.22L1310.34 1028.63C1310.29 1028.08 1309.8 1027.67 1309.25 1027.72C1308.7 1027.77 1308.3 1028.26 1308.34 1028.81L1352.65 1514.39C1352.7 1514.94 1353.19 1515.35 1353.74 1515.3C1354.2 1515.26 1354.56 1514.91 1354.64 1514.47V1514.49Z" fill="white"/>
</g>
<g opacity="0.09">
<path d="M543.401 2060.98C543.441 2060.74 543.401 2060.48 543.261 2060.26L459.141 1929.47C458.841 1929 458.221 1928.87 457.751 1929.17C457.281 1929.47 457.151 1930.1 457.451 1930.56L541.571 2061.35C541.871 2061.82 542.491 2061.95 542.951 2061.65C543.191 2061.49 543.351 2061.25 543.391 2060.98H543.401Z" fill="white"/>
</g>
<path d="M1444.07 351.1C1444.1 350.96 1444.09 350.81 1444.05 350.66L1387.14 143.12C1386.99 142.58 1386.44 142.27 1385.91 142.42C1385.38 142.57 1385.06 143.12 1385.21 143.65L1442.12 351.19C1442.26 351.72 1442.82 352.04 1443.35 351.89C1443.74 351.78 1444.01 351.47 1444.07 351.1Z" fill="white"/>
<g opacity="0.53">
<path d="M482.791 158.57L330.021 0.0100098H332.811L484.241 157.17C484.471 157.41 484.561 157.74 484.511 158.04C484.471 158.24 484.381 158.43 484.221 158.59C483.821 158.98 483.191 158.96 482.801 158.57H482.791Z" fill="white"/>
</g>
<path d="M482.73 158.51L354.09 0.0100098H356.67L484.28 157.24C484.47 157.48 484.54 157.77 484.49 158.05C484.45 158.28 484.33 158.5 484.14 158.65C483.71 159 483.08 158.93 482.73 158.5V158.51Z" fill="white"/>
<g opacity="0.04">
<path d="M1310.33 1028.91C1310.37 1028.66 1310.33 1028.39 1310.17 1028.17C1309.86 1027.71 1309.23 1027.59 1308.78 1027.9L910.41 1299.09C909.95 1299.41 909.83 1300.03 910.14 1300.48C910.45 1300.94 911.08 1301.06 911.53 1300.75L1309.9 1029.56C1310.13 1029.4 1310.28 1029.16 1310.32 1028.91H1310.33Z" fill="white"/>
</g>
<g opacity="0.24">
<path d="M484.491 158.05C484.561 157.63 484.371 157.19 483.971 156.98C483.481 156.72 482.871 156.91 482.621 157.4L241.051 618.52C240.791 619.01 240.981 619.62 241.471 619.88C241.961 620.14 242.571 619.95 242.821 619.46L484.391 158.33C484.441 158.24 484.471 158.14 484.491 158.04V158.05Z" fill="white"/>
</g>
<g opacity="0.47">
<path d="M931 2274.91C931.03 2274.75 931.02 2274.58 930.96 2274.41L797.52 1876.09C797.35 1875.56 796.78 1875.28 796.25 1875.46C795.72 1875.64 795.44 1876.2 795.62 1876.73L929.06 2275.05C929.24 2275.58 929.8 2275.86 930.33 2275.68C930.69 2275.56 930.94 2275.25 931 2274.91Z" fill="white"/>
</g>
<g opacity="0.19">
<path d="M1354.64 1514.49C1354.72 1514.06 1354.5 1513.61 1354.09 1513.41L911.41 1299.01C910.91 1298.77 910.31 1298.98 910.07 1299.48C909.83 1299.99 910.04 1300.58 910.54 1300.82L1353.22 1515.22C1353.72 1515.46 1354.32 1515.25 1354.56 1514.75C1354.6 1514.66 1354.63 1514.58 1354.64 1514.49Z" fill="white"/>
</g>
<g opacity="0.3">
<path d="M931 2274.91C931.07 2274.5 930.88 2274.07 930.5 2273.85L542.9 2059.92C542.41 2059.65 541.8 2059.83 541.54 2060.31C541.28 2060.8 541.45 2061.41 541.93 2061.68L929.54 2275.61C930.02 2275.88 930.64 2275.7 930.9 2275.21C930.95 2275.11 930.99 2275.01 931.01 2274.9L931 2274.91Z" fill="white"/>
</g>
<g opacity="0.83">
<path d="M1444.07 351.1C1444.15 350.62 1443.88 350.14 1443.41 349.98C1442.89 349.8 1442.32 350.07 1442.14 350.6L1416.01 425.68C1415.81 426.2 1416.1 426.78 1416.63 426.96C1417.15 427.14 1417.72 426.87 1417.91 426.34L1444.04 351.26C1444.06 351.21 1444.07 351.16 1444.08 351.1H1444.07Z" fill="white"/>
</g>
<g opacity="0.69">
<path d="M242.92 619.17C242.98 618.84 242.87 618.49 242.61 618.25L9.65038 405.64C9.24038 405.27 8.61038 405.3 8.23038 405.71C7.86038 406.12 7.89038 406.76 8.30038 407.13L241.26 619.74C241.67 620.11 242.3 620.08 242.68 619.67C242.81 619.53 242.89 619.35 242.93 619.17H242.92Z" fill="white"/>
</g>
<g opacity="0.63">
<path d="M1417.94 426.18C1417.96 426.09 1417.96 425.99 1417.95 425.89L1387.17 143.27C1387.11 142.72 1386.62 142.32 1386.06 142.38C1385.51 142.44 1385.11 142.93 1385.17 143.49L1415.95 426.11C1416.01 426.66 1416.5 427.06 1417.05 427C1417.5 426.95 1417.85 426.61 1417.93 426.18H1417.94Z" fill="white"/>
</g>
<g opacity="0.13">
<path d="M484.491 158.05C484.531 157.84 484.491 157.62 484.391 157.41C484.131 156.92 483.531 156.73 483.041 156.99L8.51069 405.5C8.02069 405.76 7.83069 406.36 8.08069 406.86C8.34069 407.35 8.94069 407.54 9.43069 407.28L483.961 158.77C484.251 158.62 484.431 158.35 484.481 158.05H484.491Z" fill="white"/>
</g>
<g opacity="0.1">
<path d="M561.471 152.94L364.721 0.0100098H367.991L562.691 151.36C562.991 151.6 563.131 151.97 563.061 152.33C563.031 152.48 562.971 152.63 562.871 152.77C562.531 153.21 561.901 153.29 561.461 152.95L561.471 152.94Z" fill="white"/>
</g>
<g opacity="0.93">
<path d="M797.571 1876.59C797.621 1876.33 797.571 1876.05 797.401 1875.83C797.071 1875.38 796.451 1875.28 796.001 1875.6L541.831 2059.99C541.381 2060.32 541.28 2060.95 541.6 2061.39C541.93 2061.84 542.551 2061.94 543.001 2061.62L797.17 1877.23C797.39 1877.07 797.531 1876.84 797.571 1876.59Z" fill="white"/>
</g>
<g opacity="0.92">
<path d="M482.921 158.68C482.471 158.35 482.381 157.72 482.701 157.28L597.421 0.0100098H599.901L484.311 158.46C483.981 158.91 483.361 159.01 482.911 158.68H482.921Z" fill="white"/>
</g>
<g opacity="0.03">
<path d="M1354.64 1514.49C1354.7 1514.15 1354.58 1513.79 1354.3 1513.55C1353.88 1513.19 1353.25 1513.24 1352.89 1513.66L1064.3 1854.12C1063.94 1854.54 1063.99 1855.17 1064.41 1855.53C1064.83 1855.89 1065.47 1855.84 1065.82 1855.42L1354.41 1514.96C1354.53 1514.82 1354.6 1514.66 1354.63 1514.49H1354.64Z" fill="white"/>
</g>
<path d="M797.571 1876.59C797.581 1876.53 797.591 1876.48 797.591 1876.42C797.591 1875.86 797.151 1875.41 796.591 1875.41L670.191 1874.52C669.641 1874.52 669.191 1874.98 669.181 1875.52C669.181 1876.08 669.621 1876.53 670.181 1876.53L796.581 1877.42C797.081 1877.42 797.491 1877.07 797.571 1876.59Z" fill="white"/>
<g opacity="0.81">
<path d="M563.07 152.33C563.08 152.25 563.09 152.17 563.08 152.08C563.04 151.53 562.56 151.11 562.01 151.15L483.44 156.87C482.89 156.91 482.48 157.39 482.51 157.94C482.55 158.49 483.03 158.91 483.58 158.87L562.15 153.15C562.62 153.12 562.99 152.77 563.06 152.33H563.07Z" fill="white"/>
</g>
<g opacity="0.53">
<path d="M797.571 1876.59C797.661 1876.12 797.391 1875.64 796.921 1875.47L471.011 1760.45C470.491 1760.27 469.921 1760.54 469.731 1761.06C469.541 1761.57 469.821 1762.16 470.341 1762.34L796.251 1877.36C796.771 1877.54 797.341 1877.27 797.531 1876.75C797.551 1876.7 797.561 1876.64 797.571 1876.59Z" fill="white"/>
</g>
<g opacity="0.68">
<path d="M1066.05 1854.95C1066.07 1854.87 1066.07 1854.78 1066.06 1854.69C1066.02 1854.14 1065.53 1853.73 1064.98 1853.77L796.501 1875.41C795.951 1875.45 795.531 1875.93 795.581 1876.49C795.621 1877.04 796.111 1877.45 796.661 1877.41L1065.14 1855.77C1065.6 1855.73 1065.97 1855.39 1066.05 1854.95Z" fill="white"/>
</g>
<path d="M671.171 1875.7C671.241 1875.32 671.091 1874.93 670.751 1874.7C670.291 1874.39 669.671 1874.5 669.351 1874.96L541.581 2060.24C541.271 2060.69 541.381 2061.32 541.831 2061.64C542.291 2061.95 542.911 2061.84 543.231 2061.38L671.001 1876.1C671.081 1875.98 671.141 1875.84 671.161 1875.7H671.171Z" fill="white"/>
<g opacity="0.78">
<path d="M543.401 2060.98C543.421 2060.85 543.421 2060.71 543.391 2060.57L471.651 1761.16C471.521 1760.62 470.981 1760.29 470.441 1760.42C469.901 1760.55 469.571 1761.09 469.701 1761.63L541.441 2061.04C541.571 2061.58 542.111 2061.91 542.651 2061.78C543.051 2061.68 543.331 2061.36 543.401 2060.98Z" fill="white"/>
</g>
<g opacity="0.35">
<path d="M484.491 158.05C484.551 157.71 484.431 157.35 484.161 157.11C483.741 156.75 483.111 156.8 482.751 157.22L434.451 213.74C434.091 214.16 434.141 214.79 434.561 215.16C434.981 215.52 435.611 215.47 435.971 215.05L484.281 158.53C484.401 158.39 484.481 158.22 484.511 158.05H484.491Z" fill="white"/>
</g>
<g opacity="0.02">
<path d="M1066.05 1854.95C1066.08 1854.8 1066.07 1854.65 1066.03 1854.51L911.941 1299.65C911.791 1299.12 911.241 1298.8 910.711 1298.95C910.171 1299.1 909.871 1299.66 910.011 1300.19L1064.1 1855.05C1064.25 1855.58 1064.8 1855.9 1065.33 1855.75C1065.71 1855.64 1065.98 1855.32 1066.05 1854.96V1854.95Z" fill="white"/>
</g>
<path d="M561.781 153.11C561.251 152.95 560.961 152.39 561.121 151.85L608.181 0.0100098H610.281L563.031 152.45C562.871 152.98 562.301 153.28 561.781 153.11Z" fill="white"/>
<path d="M671.171 1875.7C671.241 1875.29 671.061 1874.87 670.681 1874.65L471.171 1760.52C470.691 1760.24 470.081 1760.41 469.801 1760.89C469.521 1761.37 469.691 1761.98 470.171 1762.26L669.681 1876.39C670.161 1876.66 670.771 1876.5 671.051 1876.02C671.111 1875.92 671.151 1875.81 671.171 1875.7Z" fill="white"/>
<g opacity="0.91">
<path d="M983.371 1325.39C983.451 1324.91 983.181 1324.43 982.721 1324.27L911.321 1298.97C910.801 1298.79 910.221 1299.06 910.041 1299.58C909.841 1300.11 910.131 1300.68 910.651 1300.86L982.051 1326.16C982.571 1326.34 983.151 1326.07 983.331 1325.55C983.351 1325.49 983.361 1325.44 983.371 1325.39Z" fill="white"/>
</g>
<g opacity="0.66">
<path d="M1066.05 1854.95C1066.06 1854.88 1066.07 1854.8 1066.07 1854.72C1066.04 1854.17 1065.57 1853.74 1065.01 1853.77L670.131 1874.52C669.581 1874.55 669.151 1875.02 669.181 1875.58C669.211 1876.13 669.681 1876.56 670.231 1876.53L1065.11 1855.78C1065.58 1855.75 1065.96 1855.4 1066.04 1854.95H1066.05Z" fill="white"/>
</g>
<g opacity="0.12">
<path d="M436.191 214.56C436.221 214.37 436.201 214.16 436.121 213.97C435.891 213.46 435.301 213.24 434.791 213.47L8.56067 405.47C8.06067 405.7 7.83067 406.29 8.06067 406.8C8.29067 407.31 8.88067 407.53 9.38067 407.3L435.611 215.3C435.921 215.16 436.131 214.87 436.191 214.56Z" fill="white"/>
</g>
<g opacity="0.02">
<path d="M1066.05 1854.95C1066.05 1854.95 1066.05 1854.94 1066.05 1854.93C1066.14 1854.38 1065.76 1853.87 1065.22 1853.78L470.821 1760.4C470.271 1760.32 469.791 1760.66 469.671 1761.24C469.591 1761.79 469.961 1762.3 470.511 1762.39L1064.9 1855.77C1065.44 1855.85 1065.95 1855.49 1066.04 1854.95H1066.05Z" fill="white"/>
</g>
<g opacity="0.09">
<path d="M561.08 152.24L547.07 0.0100098H549.08L563.08 152.06C563.08 152.15 563.08 152.24 563.07 152.33C562.99 152.76 562.64 153.11 562.18 153.15C561.63 153.2 561.14 152.79 561.09 152.24H561.08Z" fill="white"/>
</g>
<g opacity="0.69">
<path d="M434.591 215.19C434.151 214.85 434.061 214.22 434.401 213.78L596.661 0.0100098H599.181L436.001 215C435.661 215.44 435.041 215.53 434.591 215.19Z" fill="white"/>
</g>
<g opacity="0.12">
<path d="M411.41 422.34C411.41 422.34 411.42 422.25 411.42 422.2C411.44 421.65 411.01 421.18 410.46 421.16L9.0104 405.38C8.4604 405.36 7.9804 405.78 7.9704 406.35C7.9504 406.9 8.3804 407.37 8.9304 407.39L410.38 423.17C410.89 423.19 411.32 422.83 411.41 422.34Z" fill="white"/>
</g>
<g opacity="0.2">
<path d="M1417.94 426.18C1417.98 425.94 1417.94 425.69 1417.8 425.47C1417.51 425 1416.89 424.86 1416.42 425.15L1038.64 661.62C1038.17 661.91 1038.03 662.53 1038.32 663C1038.61 663.47 1039.23 663.61 1039.7 663.32L1417.48 426.85C1417.73 426.69 1417.89 426.44 1417.94 426.17V426.18Z" fill="white"/>
</g>
<g opacity="0.09">
<path d="M1186.78 1319.41C1186.78 1319.41 1186.79 1319.34 1186.79 1319.3C1186.83 1318.75 1186.41 1318.27 1185.86 1318.23L911.04 1298.91C910.49 1298.87 910 1299.29 909.97 1299.84C909.93 1300.39 910.35 1300.87 910.9 1300.91L1185.72 1320.23C1186.24 1320.27 1186.69 1319.9 1186.78 1319.41Z" fill="white"/>
</g>
<g opacity="0.75">
<path d="M703.641 103.79L632.991 0.0100098H635.421L705.301 102.66C705.451 102.89 705.501 103.15 705.461 103.4C705.411 103.66 705.271 103.9 705.041 104.05C704.581 104.36 703.961 104.24 703.651 103.79H703.641Z" fill="white"/>
</g>
<g opacity="0.03">
<path d="M410.001 423.08C409.501 422.85 409.281 422.25 409.511 421.75L604.301 0.0100098H606.511L411.331 422.59C411.101 423.09 410.501 423.31 410.001 423.08Z" fill="white"/>
</g>
<g opacity="0.18">
<path d="M1066.05 1854.95C1066.07 1854.84 1066.07 1854.73 1066.05 1854.62L983.371 1325.06C983.281 1324.51 982.771 1324.14 982.231 1324.22C981.681 1324.31 981.311 1324.82 981.391 1325.37L1064.07 1854.93C1064.16 1855.48 1064.67 1855.85 1065.21 1855.77C1065.65 1855.7 1065.97 1855.36 1066.04 1854.95H1066.05Z" fill="white"/>
</g>
<path d="M563.07 152.33C563.11 152.13 563.08 151.91 562.98 151.71C562.74 151.21 562.14 151 561.64 151.25L434.76 213.49C434.26 213.73 434.05 214.33 434.3 214.83C434.54 215.33 435.14 215.54 435.64 215.29L562.52 153.05C562.82 152.9 563.01 152.63 563.07 152.32V152.33Z" fill="white"/>
<path d="M705.461 103.4C705.491 103.24 705.48 103.07 705.421 102.9C705.241 102.38 704.671 102.1 704.151 102.28L561.761 151.2C561.241 151.38 560.961 151.95 561.141 152.48C561.321 153.01 561.89 153.29 562.41 153.11L704.801 104.18C705.161 104.06 705.401 103.75 705.461 103.41V103.4Z" fill="white"/>
<g opacity="0.31">
<path d="M1417.89 425.66L1475.76 584.53V590.39L1416 426.35C1415.81 425.83 1416.08 425.25 1416.6 425.06C1417.12 424.87 1417.7 425.14 1417.89 425.66Z" fill="white"/>
</g>
<g opacity="0.74">
<path d="M563.071 152.33C563.141 151.92 562.961 151.49 562.571 151.28C562.091 151.01 561.481 151.18 561.211 151.66L409.551 421.68C409.281 422.17 409.451 422.78 409.931 423.05C410.411 423.32 411.021 423.15 411.291 422.67L562.951 152.65C563.011 152.55 563.051 152.44 563.061 152.33H563.071Z" fill="white"/>
</g>
<g opacity="0.16">
<path d="M987.68 1706.55C987.72 1706.34 987.68 1706.11 987.58 1705.9C987.32 1705.41 986.71 1705.22 986.22 1705.48L669.71 1874.63C669.22 1874.89 669.04 1875.5 669.3 1875.99C669.56 1876.48 670.17 1876.66 670.66 1876.4L987.17 1707.25C987.45 1707.1 987.63 1706.83 987.69 1706.54L987.68 1706.55Z" fill="white"/>
</g>
<g opacity="0.04">
<path d="M561.49 152.96C561.04 152.63 560.94 152.01 561.27 151.56L671.54 0.0100098H674.02L562.89 152.74C562.56 153.19 561.94 153.29 561.49 152.96Z" fill="white"/>
</g>
<g opacity="0.14">
<path d="M983.361 1325.39C983.431 1325.02 983.281 1324.63 982.961 1324.4L523.541 990.91C523.091 990.59 522.471 990.69 522.141 991.14C521.821 991.59 521.921 992.22 522.361 992.54L981.781 1326.03C982.231 1326.35 982.861 1326.25 983.181 1325.8C983.271 1325.67 983.331 1325.53 983.351 1325.39H983.361Z" fill="white"/>
</g>
<g opacity="0.15">
<path d="M561.19 152.62L480.69 0.0100098H482.96L562.96 151.68C563.07 151.89 563.1 152.11 563.06 152.33C563.01 152.62 562.83 152.89 562.54 153.04C562.05 153.3 561.44 153.11 561.19 152.62Z" fill="white"/>
</g>
<g opacity="0.76">
<path d="M1066.05 1854.95C1066.09 1854.74 1066.05 1854.51 1065.95 1854.3L987.58 1705.9C987.32 1705.41 986.71 1705.22 986.23 1705.48C985.74 1705.74 985.55 1706.34 985.81 1706.84L1064.18 1855.24C1064.44 1855.73 1065.05 1855.92 1065.54 1855.66C1065.82 1855.51 1066.01 1855.24 1066.06 1854.95H1066.05Z" fill="white"/>
</g>
<path d="M705.461 103.4C705.491 103.22 705.471 103.03 705.401 102.84C705.191 102.33 704.601 102.08 704.091 102.29L434.821 213.45C434.311 213.66 434.071 214.25 434.281 214.76C434.491 215.27 435.081 215.52 435.591 215.31L704.861 104.15C705.191 104.01 705.411 103.72 705.471 103.4H705.461Z" fill="white"/>
<path d="M411.41 422.34C411.41 422.34 411.41 422.3 411.41 422.28L436.19 214.5C436.26 213.95 435.86 213.45 435.32 213.38C434.77 213.31 434.27 213.71 434.21 214.26L409.43 422.04C409.36 422.59 409.76 423.09 410.31 423.16C410.84 423.22 411.32 422.86 411.42 422.34H411.41Z" fill="white"/>
<g opacity="0.1">
<path d="M523.951 991.9C523.971 991.78 523.971 991.66 523.951 991.53L411.411 421.97C411.301 421.43 410.781 421.07 410.231 421.18C409.691 421.29 409.331 421.82 409.441 422.36L521.981 991.92C522.091 992.46 522.611 992.82 523.161 992.71C523.581 992.63 523.881 992.3 523.951 991.9Z" fill="white"/>
</g>
<path d="M1186.78 1319.41C1186.79 1319.34 1186.8 1319.27 1186.79 1319.2C1186.78 1318.65 1186.31 1318.21 1185.76 1318.23L982.341 1324.21C981.791 1324.23 981.341 1324.7 981.371 1325.24C981.391 1325.79 981.851 1326.23 982.401 1326.21L1185.82 1320.23C1186.3 1320.22 1186.7 1319.86 1186.78 1319.4V1319.41Z" fill="white"/>
<g opacity="0.63">
<path d="M987.681 1706.55C987.691 1706.49 987.701 1706.42 987.701 1706.36L983.381 1325.2C983.381 1324.65 982.921 1324.2 982.371 1324.21C981.811 1324.21 981.371 1324.67 981.381 1325.22L985.701 1706.38C985.701 1706.94 986.161 1707.38 986.711 1707.37C987.201 1707.37 987.601 1707.01 987.681 1706.54V1706.55Z" fill="white"/>
</g>
<g opacity="0.24">
<path d="M573.38 448.18C573.39 448.11 573.4 448.04 573.39 447.97L563.08 152.12C563.06 151.57 562.6 151.13 562.04 151.15C561.49 151.17 561.05 151.63 561.07 152.19L571.38 448.04C571.4 448.59 571.86 449.03 572.42 449.01C572.9 448.99 573.29 448.64 573.37 448.18H573.38Z" fill="white"/>
</g>
<g opacity="0.3">
<path d="M434.221 214.59L390.741 0.0100098H392.791L436.191 214.19C436.221 214.32 436.221 214.44 436.191 214.57C436.121 214.96 435.821 215.29 435.401 215.38C434.861 215.49 434.331 215.14 434.221 214.6V214.59Z" fill="white"/>
</g>
<g opacity="0.04">
<path d="M924.211 274.58C924.291 274.1 924.021 273.61 923.541 273.45L562.401 151.19C561.881 151.01 561.311 151.3 561.131 151.82C560.961 152.35 561.231 152.91 561.761 153.09L922.911 275.35C923.431 275.53 924.001 275.24 924.181 274.72C924.201 274.67 924.211 274.62 924.221 274.57L924.211 274.58Z" fill="white"/>
</g>
<g opacity="0.6">
<path d="M705.461 103.4C705.521 103.07 705.411 102.73 705.151 102.48C704.741 102.1 704.111 102.13 703.731 102.54L409.691 421.48C409.311 421.89 409.341 422.52 409.741 422.9C410.151 423.28 410.781 423.25 411.161 422.85L705.201 103.91C705.341 103.76 705.421 103.59 705.451 103.41L705.461 103.4Z" fill="white"/>
</g>
<g opacity="0.62">
<path d="M704.05 104.14C703.55 103.91 703.32 103.32 703.55 102.81L750.18 0.0100098H752.38L705.38 103.64C705.15 104.15 704.56 104.37 704.05 104.14Z" fill="white"/>
</g>
<g opacity="0.33">
<path d="M1466.2 945.31C1466.27 944.93 1466.11 944.52 1465.77 944.3L1039.73 661.64C1039.27 661.34 1038.65 661.46 1038.34 661.92C1038.04 662.38 1038.16 663.01 1038.62 663.31L1464.66 945.97C1465.12 946.28 1465.74 946.15 1466.05 945.69C1466.13 945.57 1466.18 945.44 1466.2 945.31Z" fill="white"/>
</g>
<path d="M1466.12 944.7L1475.77 964.88V969.53L1464.32 945.57C1464.08 945.07 1464.29 944.47 1464.79 944.23C1465.29 943.99 1465.89 944.2 1466.13 944.7H1466.12Z" fill="white"/>
<g opacity="0.28">
<path d="M703.75 103.93L603 0.0100098H605.8L705.19 102.53C705.42 102.77 705.511 103.1 705.461 103.41C705.421 103.61 705.33 103.8 705.17 103.95C704.77 104.34 704.14 104.33 703.75 103.93Z" fill="white"/>
</g>
<g opacity="0.61">
<path d="M1475.76 1243.63L1186.05 1320.2C1185.52 1320.34 1184.97 1320.02 1184.83 1319.48C1184.69 1318.95 1185.01 1318.39 1185.54 1318.25L1475.76 1241.54V1243.62V1243.63Z" fill="white"/>
</g>
<g opacity="0.45">
<path d="M1475.76 661.62L1039.17 663.47C1038.62 663.47 1038.17 663.03 1038.16 662.47C1038.17 661.92 1038.6 661.47 1039.16 661.46L1475.76 659.61V661.62Z" fill="white"/>
</g>
<g opacity="0.5">
<path d="M1466.2 945.31C1466.26 944.95 1466.13 944.56 1465.81 944.33C1465.37 944 1464.74 944.09 1464.41 944.53L1184.99 1318.63C1184.66 1319.07 1184.75 1319.7 1185.19 1320.03C1185.63 1320.36 1186.26 1320.27 1186.59 1319.83L1466.01 945.73C1466.11 945.6 1466.17 945.45 1466.2 945.3V945.31Z" fill="white"/>
</g>
<g opacity="0.67">
<path d="M573.38 448.18C573.42 447.95 573.38 447.71 573.26 447.5L436.07 213.88C435.79 213.4 435.17 213.24 434.7 213.52C434.22 213.8 434.06 214.42 434.34 214.9L571.53 448.51C571.81 448.99 572.42 449.15 572.9 448.87C573.16 448.72 573.33 448.46 573.38 448.18Z" fill="white"/>
</g>
<g opacity="0.1">
<path d="M924.211 274.58C924.211 274.58 924.211 274.54 924.211 274.53C924.281 273.98 923.891 273.48 923.341 273.41L435.321 213.39C434.771 213.32 434.281 213.71 434.201 214.26C434.131 214.81 434.521 215.31 435.071 215.38L923.091 275.4C923.621 275.46 924.111 275.1 924.201 274.58H924.211Z" fill="white"/>
</g>
<g opacity="0.29">
<path d="M434.211 214.52L405.531 0.0100098H407.551L436.201 214.26C436.211 214.37 436.211 214.47 436.201 214.57C436.131 214.99 435.791 215.33 435.351 215.39C434.801 215.46 434.301 215.08 434.231 214.53L434.211 214.52Z" fill="white"/>
</g>
<path d="M1475.76 872.06L1466.2 945.26C1466.2 945.26 1466.2 945.29 1466.2 945.31C1466.11 945.84 1465.62 946.2 1465.08 946.13C1464.53 946.06 1464.14 945.55 1464.22 945L1475.76 856.59V872.06Z" fill="white"/>
<g opacity="0.6">
<path d="M1186.78 1319.41C1186.85 1318.99 1186.65 1318.55 1186.25 1318.34C1185.76 1318.09 1185.15 1318.28 1184.9 1318.77L985.8 1705.91C985.54 1706.4 985.74 1707.01 986.23 1707.26C986.72 1707.52 987.33 1707.32 987.58 1706.83L1186.68 1319.69C1186.73 1319.6 1186.76 1319.5 1186.78 1319.41Z" fill="white"/>
</g>
<g opacity="0.15">
<path d="M1040.16 662.65C1040.24 662.21 1040.01 661.76 1039.59 661.56L572.81 447.09C572.31 446.86 571.71 447.09 571.48 447.58C571.24 448.08 571.47 448.68 571.97 448.91L1038.75 663.38C1039.25 663.61 1039.85 663.39 1040.08 662.89C1040.12 662.81 1040.14 662.73 1040.16 662.65Z" fill="white"/>
</g>
<g opacity="0.44">
<path d="M1040.16 662.65C1040.19 662.5 1040.18 662.34 1040.13 662.19L924.181 274.13C924.021 273.6 923.461 273.3 922.931 273.46C922.401 273.62 922.101 274.18 922.261 274.71L1038.21 662.78C1038.37 663.31 1038.93 663.61 1039.46 663.45C1039.84 663.34 1040.1 663.03 1040.16 662.66V662.65Z" fill="white"/>
</g>
<g opacity="0.61">
<path d="M705.461 103.4C705.541 102.93 705.291 102.46 704.831 102.29C704.311 102.09 703.73 102.35 703.54 102.87L571.461 447.65C571.261 448.16 571.52 448.75 572.04 448.95C572.56 449.15 573.141 448.89 573.331 448.37L705.41 103.59C705.43 103.53 705.451 103.47 705.461 103.41V103.4Z" fill="white"/>
</g>
<path d="M573.38 448.18C573.38 448.18 573.38 448.17 573.38 448.16C573.47 447.61 573.1 447.1 572.55 447.01L410.58 421.17C410.03 421.08 409.55 421.47 409.43 422C409.34 422.55 409.71 423.06 410.26 423.15L572.23 448.99C572.77 449.08 573.28 448.71 573.38 448.17V448.18Z" fill="white"/>
<path d="M1475.76 946.69L1465.16 946.13C1464.61 946.1 1464.18 945.63 1464.21 945.07C1464.24 944.52 1464.71 944.09 1465.26 944.12L1475.76 944.67V946.68V946.69Z" fill="white"/>
<g opacity="0.82">
<path d="M924.21 274.58C924.27 274.23 924.14 273.85 923.84 273.61L705.08 102.43C704.64 102.09 704.01 102.17 703.67 102.6C703.33 103.03 703.41 103.67 703.84 104.01L922.59 275.19C923.03 275.53 923.66 275.45 924 275.02C924.1 274.89 924.17 274.73 924.2 274.58H924.21Z" fill="white"/>
</g>
<g opacity="0.12">
<path d="M924.211 274.58C924.241 274.43 924.231 274.28 924.191 274.13C924.041 273.6 923.481 273.29 922.951 273.44L410.151 421.2C409.621 421.35 409.311 421.91 409.461 422.44C409.611 422.97 410.171 423.28 410.701 423.13L923.501 275.37C923.881 275.26 924.151 274.95 924.211 274.58Z" fill="white"/>
</g>
<g opacity="0.38">
<path d="M703.781 103.96L592.621 0.0100098H595.561L705.161 102.49C705.421 102.73 705.521 103.08 705.461 103.4C705.431 103.58 705.341 103.76 705.211 103.91C704.831 104.31 704.201 104.34 703.791 103.96H703.781Z" fill="white"/>
</g>
<g opacity="0.08">
<path d="M922.22 274.48L901.63 0.0100098H903.64L924.22 274.33C924.22 274.42 924.22 274.5 924.21 274.58C924.13 275.02 923.76 275.37 923.3 275.41C922.75 275.45 922.27 275.04 922.22 274.48Z" fill="white"/>
</g>
<g opacity="0.34">
<path d="M703.471 103.24L702.221 0.0100098H704.221L705.471 103.21C705.471 103.27 705.471 103.34 705.461 103.4C705.381 103.86 704.971 104.22 704.481 104.23C703.931 104.23 703.471 103.79 703.471 103.24Z" fill="white"/>
</g>
<g opacity="0.31">
<path d="M1302.83 378.43C1302.89 378.1 1302.78 377.76 1302.52 377.52C1302.11 377.14 1301.48 377.17 1301.1 377.57L1038.43 661.79C1038.06 662.2 1038.08 662.84 1038.48 663.21C1038.89 663.59 1039.52 663.56 1039.9 663.16L1302.57 378.94C1302.71 378.79 1302.79 378.62 1302.82 378.43H1302.83Z" fill="white"/>
</g>
<g opacity="0.67">
<path d="M1475.76 621.32V624.79L1301.02 378.84C1300.7 378.39 1300.8 377.76 1301.26 377.44C1301.71 377.12 1302.34 377.22 1302.66 377.68L1475.76 621.33V621.32Z" fill="white"/>
</g>
<g opacity="0.75">
<path d="M924.21 274.58C924.25 274.38 924.22 274.16 924.12 273.96C923.88 273.46 923.27 273.26 922.78 273.5L571.95 447.1C571.45 447.35 571.25 447.95 571.49 448.45C571.74 448.95 572.34 449.15 572.83 448.91L923.66 275.31C923.96 275.16 924.15 274.89 924.2 274.58H924.21Z" fill="white"/>
</g>
<g opacity="0.72">
<path d="M1302.83 378.43C1302.92 377.92 1302.61 377.42 1302.11 377.29L923.491 273.44C922.951 273.29 922.401 273.61 922.261 274.14C922.131 274.67 922.431 275.23 922.961 275.37L1301.58 379.22C1302.11 379.37 1302.66 379.05 1302.81 378.52C1302.81 378.49 1302.82 378.46 1302.83 378.43Z" fill="white"/>
</g>
<g opacity="0.19">
<path d="M1241.33 181.81C1241.36 181.66 1241.35 181.51 1241.31 181.35C1241.15 180.82 1240.6 180.51 1240.07 180.67L922.951 273.45C922.421 273.61 922.111 274.16 922.271 274.7C922.431 275.23 922.981 275.54 923.511 275.38L1240.63 182.6C1241.01 182.49 1241.27 182.17 1241.34 181.81H1241.33Z" fill="white"/>
</g>
<g opacity="0.65">
<path d="M1302.83 378.43C1302.86 378.28 1302.85 378.11 1302.8 377.95L1241.31 181.33C1241.14 180.8 1240.58 180.51 1240.05 180.67C1239.52 180.83 1239.23 181.4 1239.39 181.93L1300.89 378.55C1301.06 379.08 1301.62 379.37 1302.15 379.21C1302.52 379.1 1302.77 378.78 1302.84 378.43H1302.83Z" fill="white"/>
</g>
<path d="M555.881 1021.38C555.241 1024.97 557.631 1028.39 561.211 1029.03C564.791 1029.67 568.21 1027.28 568.85 1023.69C569.49 1020.1 567.101 1016.68 563.521 1016.04C559.941 1015.4 556.521 1017.79 555.891 1021.38H555.881Z" fill="white"/>
<path d="M1323.95 176.16C1323.32 179.69 1325.67 183.06 1329.19 183.68C1332.71 184.31 1336.07 181.96 1336.7 178.43C1337.33 174.9 1334.98 171.53 1331.46 170.9C1327.94 170.27 1324.58 172.63 1323.95 176.15V176.16Z" fill="white"/>
<path d="M709.38 584.03C708.47 589.15 711.88 594.03 716.98 594.94C722.09 595.85 726.96 592.44 727.87 587.32C728.78 582.21 725.38 577.32 720.27 576.41C715.17 575.5 710.29 578.91 709.38 584.03Z" fill="white"/>
<path d="M1464.7 501.5C1464.17 504.51 1466.17 507.38 1469.17 507.92C1472.17 508.45 1475.04 506.45 1475.57 503.44C1476.1 500.43 1474.1 497.56 1471.1 497.02C1468.1 496.49 1465.23 498.49 1464.7 501.5Z" fill="white"/>
<path d="M1062.36 775.75C1061.4 781.15 1064.99 786.3 1070.38 787.26C1075.77 788.22 1080.91 784.62 1081.86 779.23C1082.82 773.83 1079.23 768.68 1073.84 767.72C1068.46 766.76 1063.32 770.36 1062.36 775.75Z" fill="white"/>
<path d="M800 1267.39C799.34 1271.11 801.82 1274.66 805.53 1275.33C809.24 1276 812.79 1273.51 813.45 1269.79C814.11 1266.07 811.63 1262.51 807.92 1261.85C804.21 1261.19 800.66 1263.67 800 1267.39Z" fill="white"/>
<path d="M1210.11 510.55C1209.17 515.86 1212.7 520.94 1218 521.88C1223.3 522.82 1228.36 519.28 1229.31 513.97C1230.26 508.66 1226.72 503.59 1221.42 502.64C1216.12 501.69 1211.06 505.24 1210.12 510.55H1210.11Z" fill="white"/>
<path d="M603.881 1693.62C603.031 1698.41 606.211 1702.98 610.991 1703.83C615.771 1704.68 620.331 1701.49 621.171 1696.7C622.021 1691.91 618.841 1687.35 614.061 1686.49C609.281 1685.64 604.721 1688.83 603.881 1693.62Z" fill="white"/>
<path d="M874.961 1588.14C874.461 1590.95 876.331 1593.63 879.131 1594.13C881.931 1594.63 884.611 1592.76 885.101 1589.95C885.601 1587.14 883.731 1584.46 880.931 1583.96C878.131 1583.46 875.451 1585.33 874.961 1588.14Z" fill="white"/>
<path d="M1475.76 208.66C1475.46 208.65 1475.17 208.65 1474.87 208.59C1471.08 207.91 1468.56 204.29 1469.23 200.49C1469.81 197.22 1472.58 194.9 1475.76 194.75V208.65V208.66Z" fill="white"/>
<path d="M1100.65 1699.47C1100.14 1702.34 1102.05 1705.07 1104.91 1705.58C1107.77 1706.09 1110.5 1704.18 1111.01 1701.31C1111.52 1698.44 1109.61 1695.71 1106.75 1695.2C1103.89 1694.69 1101.16 1696.6 1100.65 1699.47Z" fill="white"/>
<path d="M1289.4 255.55C1288.58 260.15 1291.64 264.54 1296.23 265.36C1300.82 266.18 1305.2 263.11 1306.01 258.51C1306.83 253.91 1303.77 249.52 1299.18 248.71C1294.59 247.89 1290.21 250.96 1289.4 255.55Z" fill="white"/>
<path d="M478.29 234.41C477.67 237.92 480 241.26 483.5 241.88C487 242.5 490.34 240.17 490.96 236.66C491.58 233.15 489.25 229.81 485.75 229.19C482.25 228.57 478.91 230.9 478.29 234.41Z" fill="white"/>
<path d="M1275.81 773.44C1275.15 777.18 1277.63 780.74 1281.36 781.41C1285.09 782.08 1288.65 779.58 1289.31 775.85C1289.97 772.12 1287.49 768.55 1283.76 767.89C1280.03 767.23 1276.47 769.72 1275.81 773.45V773.44Z" fill="white"/>
<path d="M831.13 187.14C830.55 190.41 832.72 193.52 835.98 194.1C839.24 194.68 842.35 192.5 842.93 189.24C843.51 185.98 841.34 182.86 838.08 182.28C834.82 181.7 831.71 183.88 831.13 187.14Z" fill="white"/>
<path d="M1202.4 1080.64C1201.55 1085.45 1204.75 1090.05 1209.55 1090.9C1214.35 1091.76 1218.94 1088.55 1219.79 1083.73C1220.64 1078.92 1217.44 1074.32 1212.64 1073.46C1207.84 1072.6 1203.25 1075.81 1202.4 1080.63V1080.64Z" fill="white"/>
<path d="M885.39 1287.18C884.72 1290.95 887.23 1294.55 890.99 1295.22C894.75 1295.89 898.34 1293.38 899.01 1289.61C899.68 1285.84 897.17 1282.24 893.41 1281.57C889.65 1280.9 886.06 1283.41 885.39 1287.18Z" fill="white"/>
<path d="M970.751 227.52C970.211 230.59 972.251 233.52 975.311 234.07C978.371 234.62 981.301 232.57 981.841 229.5C982.391 226.43 980.341 223.5 977.281 222.95C974.221 222.4 971.291 224.45 970.751 227.52Z" fill="white"/>
<path d="M1182.81 1758.13C1182.24 1761.36 1184.39 1764.45 1187.61 1765.02C1190.84 1765.59 1193.92 1763.44 1194.49 1760.21C1195.06 1756.98 1192.91 1753.89 1189.69 1753.32C1186.46 1752.74 1183.38 1754.9 1182.81 1758.13Z" fill="white"/>
<path d="M600.78 8.58999C600.24 11.66 602.28 14.6 605.35 15.15C608.42 15.7 611.35 13.65 611.89 10.57C612.43 7.48999 610.39 4.55999 607.32 4.00999C604.25 3.45999 601.32 5.50999 600.78 8.58999Z" fill="white"/>
<path d="M1015.62 1603.85C1014.93 1607.73 1017.51 1611.43 1021.38 1612.12C1025.25 1612.81 1028.95 1610.22 1029.63 1606.35C1030.32 1602.47 1027.74 1598.77 1023.87 1598.08C1020 1597.39 1016.3 1599.98 1015.62 1603.85Z" fill="white"/>
<path d="M1206.84 797.82C1206.21 801.35 1208.56 804.72 1212.09 805.35C1215.61 805.98 1218.98 803.62 1219.6 800.09C1220.23 796.56 1217.88 793.19 1214.35 792.56C1210.83 791.93 1207.46 794.29 1206.84 797.82Z" fill="white"/>
<path d="M1193.2 757.59C1192.56 761.22 1194.97 764.68 1198.59 765.33C1202.21 765.97 1205.67 763.56 1206.31 759.93C1206.95 756.3 1204.54 752.84 1200.92 752.19C1197.3 751.54 1193.84 753.96 1193.2 757.59Z" fill="white"/>
<path d="M1315.31 2200.6C1314.37 2205.93 1317.91 2211.01 1323.22 2211.96C1328.54 2212.91 1333.61 2209.36 1334.55 2204.03C1335.49 2198.7 1331.95 2193.62 1326.64 2192.67C1321.32 2191.72 1316.25 2195.27 1315.31 2200.6Z" fill="white"/>
<path d="M1134.34 1343.46C1133.52 1348.08 1136.59 1352.48 1141.2 1353.3C1145.81 1354.12 1150.2 1351.04 1151.02 1346.43C1151.84 1341.81 1148.77 1337.41 1144.16 1336.59C1139.55 1335.77 1135.16 1338.85 1134.34 1343.46Z" fill="white"/>
<path d="M1454.12 1656.8C1453.26 1661.65 1456.49 1666.29 1461.33 1667.15C1466.17 1668.01 1470.8 1664.78 1471.66 1659.92C1472.52 1655.07 1469.29 1650.43 1464.45 1649.57C1459.61 1648.71 1454.98 1651.94 1454.12 1656.79V1656.8Z" fill="white"/>
<path d="M807.611 1699.81C806.831 1704.21 809.761 1708.4 814.141 1709.18C818.531 1709.96 822.711 1707.03 823.491 1702.64C824.271 1698.24 821.351 1694.05 816.961 1693.27C812.571 1692.49 808.391 1695.42 807.611 1699.81Z" fill="white"/>
<path d="M1449.92 419.09C1449.27 422.74 1451.7 426.22 1455.34 426.86C1458.98 427.5 1462.45 425.08 1463.1 421.43C1463.75 417.79 1461.32 414.3 1457.68 413.66C1454.04 413.01 1450.57 415.44 1449.92 419.09Z" fill="white"/>
<path d="M887.721 1116.47C886.871 1121.26 890.061 1125.83 894.831 1126.68C899.611 1127.53 904.171 1124.34 905.021 1119.55C905.871 1114.76 902.681 1110.19 897.911 1109.34C893.131 1108.49 888.571 1111.68 887.721 1116.47Z" fill="white"/>
<path d="M898.021 1404.64C897.341 1408.45 899.881 1412.09 903.681 1412.77C907.481 1413.45 911.111 1410.91 911.791 1407.1C912.471 1403.29 909.931 1399.65 906.131 1398.97C902.331 1398.29 898.701 1400.83 898.021 1404.64Z" fill="white"/>
<path d="M1286.84 925.2C1285.91 930.44 1289.4 935.44 1294.62 936.37C1299.85 937.3 1304.84 933.81 1305.77 928.57C1306.7 923.33 1303.22 918.33 1297.99 917.4C1292.76 916.47 1287.77 919.96 1286.84 925.2Z" fill="white"/>
<path d="M1206.11 1859.97C1205.25 1864.83 1208.48 1869.47 1213.33 1870.34C1218.18 1871.2 1222.81 1867.96 1223.67 1863.1C1224.53 1858.24 1221.3 1853.6 1216.45 1852.73C1211.6 1851.87 1206.97 1855.11 1206.11 1859.97Z" fill="white"/>
<path d="M1417.11 704.16C1416.11 709.79 1419.86 715.17 1425.48 716.17C1431.1 717.17 1436.47 713.42 1437.47 707.78C1438.47 702.15 1434.72 696.77 1429.1 695.77C1423.48 694.77 1418.11 698.52 1417.11 704.16Z" fill="white"/>
<path d="M1036.88 1508.56C1036.1 1512.97 1039.03 1517.18 1043.43 1517.96C1047.83 1518.74 1052.03 1515.8 1052.81 1511.39C1053.59 1506.98 1050.66 1502.77 1046.26 1501.99C1041.86 1501.21 1037.66 1504.14 1036.88 1508.56Z" fill="white"/>
<path d="M893.71 568.78C893.15 571.92 895.24 574.92 898.37 575.47C901.5 576.03 904.49 573.94 905.05 570.8C905.61 567.66 903.52 564.66 900.39 564.11C897.26 563.55 894.27 565.64 893.71 568.78Z" fill="white"/>
<path d="M1475.76 559.21C1475.16 559.26 1474.55 559.27 1473.92 559.16C1470.13 558.49 1467.61 554.86 1468.28 551.07C1468.92 547.48 1472.19 545.06 1475.75 545.38V559.21H1475.76Z" fill="white"/>
<path d="M1403.99 1482.79C1403.38 1486.21 1405.66 1489.48 1409.08 1490.09C1412.5 1490.7 1415.76 1488.42 1416.36 1484.99C1416.97 1481.57 1414.69 1478.3 1411.27 1477.69C1407.85 1477.08 1404.59 1479.36 1403.99 1482.79Z" fill="white"/>
<path d="M879.951 225.17C879.231 229.23 881.931 233.1 885.981 233.82C890.031 234.54 893.891 231.84 894.611 227.78C895.331 223.72 892.631 219.85 888.581 219.13C884.531 218.41 880.671 221.11 879.951 225.17Z" fill="white"/>
<path d="M1258.9 731.72C1257.91 737.31 1261.63 742.64 1267.2 743.64C1272.77 744.64 1278.1 740.91 1279.09 735.32C1280.08 729.73 1276.36 724.4 1270.79 723.4C1265.21 722.41 1259.89 726.13 1258.9 731.72Z" fill="white"/>
<path d="M1350.86 592.43C1349.79 598.46 1353.8 604.22 1359.82 605.29C1365.84 606.36 1371.58 602.34 1372.65 596.31C1373.72 590.28 1369.71 584.52 1363.69 583.45C1357.67 582.38 1351.93 586.4 1350.86 592.43Z" fill="white"/>
<path d="M1414.38 466.04C1413.68 470.01 1416.31 473.79 1420.27 474.5C1424.23 475.2 1428 472.56 1428.71 468.6C1429.41 464.64 1426.78 460.85 1422.82 460.15C1418.86 459.44 1415.09 462.09 1414.38 466.05V466.04Z" fill="white"/>
<path d="M375.5 163.17C374.63 168.07 377.89 172.75 382.78 173.62C387.67 174.49 392.34 171.22 393.21 166.32C394.08 161.42 390.82 156.74 385.93 155.87C381.04 155 376.37 158.27 375.5 163.17Z" fill="white"/>
<path d="M448.26 1928.22C447.27 1933.77 450.97 1939.08 456.51 1940.07C462.05 1941.06 467.35 1937.35 468.33 1931.8C469.31 1926.24 465.62 1920.94 460.08 1919.95C454.54 1918.96 449.24 1922.67 448.26 1928.22Z" fill="white"/>
<path d="M1373.57 2162.07C1372.96 2165.53 1375.26 2168.83 1378.71 2169.45C1382.16 2170.06 1385.46 2167.76 1386.07 2164.3C1386.68 2160.84 1384.38 2157.54 1380.93 2156.92C1377.48 2156.3 1374.18 2158.61 1373.57 2162.07Z" fill="white"/>
<path d="M245.33 1446.64C244.35 1452.18 248.03 1457.47 253.56 1458.46C259.09 1459.44 264.37 1455.75 265.35 1450.21C266.33 1444.67 262.65 1439.38 257.12 1438.39C251.59 1437.41 246.31 1441.1 245.33 1446.64Z" fill="white"/>
<path d="M1301.76 1027.38C1301.02 1031.58 1303.81 1035.59 1308 1036.33C1312.19 1037.07 1316.19 1034.28 1316.94 1030.08C1317.68 1025.88 1314.89 1021.87 1310.7 1021.13C1306.51 1020.38 1302.51 1023.18 1301.76 1027.38Z" fill="white"/>
<path d="M1431.78 348.91C1430.67 355.16 1434.83 361.14 1441.07 362.25C1447.31 363.36 1453.27 359.19 1454.38 352.94C1455.49 346.69 1451.33 340.72 1445.09 339.6C1438.85 338.49 1432.89 342.66 1431.78 348.91Z" fill="white"/>
<path d="M918.481 2272.68C917.351 2279.06 921.591 2285.16 927.961 2286.29C934.331 2287.43 940.411 2283.17 941.541 2276.79C942.671 2270.41 938.431 2264.31 932.061 2263.18C925.691 2262.05 919.611 2266.3 918.481 2272.68Z" fill="white"/>
<path d="M1377.53 141.84C1376.68 146.62 1379.86 151.19 1384.64 152.04C1389.41 152.89 1393.97 149.7 1394.82 144.92C1395.67 140.14 1392.49 135.57 1387.71 134.72C1382.94 133.87 1378.38 137.06 1377.53 141.84Z" fill="white"/>
<path d="M1342.09 1512.26C1340.96 1518.66 1345.21 1524.77 1351.59 1525.9C1357.97 1527.04 1364.07 1522.77 1365.2 1516.38C1366.33 1509.98 1362.08 1503.87 1355.7 1502.74C1349.32 1501.6 1343.22 1505.87 1342.09 1512.26Z" fill="white"/>
<path d="M235.02 617.76C234.34 621.59 236.89 625.24 240.71 625.92C244.53 626.6 248.18 624.05 248.86 620.22C249.54 616.39 246.99 612.74 243.17 612.06C239.35 611.38 235.7 613.93 235.02 617.76Z" fill="white"/>
<path d="M474.29 156.23C473.38 161.33 476.78 166.21 481.87 167.11C486.96 168.02 491.82 164.62 492.73 159.51C493.64 154.41 490.24 149.53 485.15 148.63C480.06 147.72 475.19 151.12 474.29 156.23Z" fill="white"/>
<path d="M785.251 1874.4C784.141 1880.67 788.311 1886.65 794.561 1887.77C800.821 1888.88 806.791 1884.7 807.901 1878.44C809.011 1872.17 804.841 1866.19 798.591 1865.07C792.341 1863.96 786.361 1868.13 785.251 1874.4Z" fill="white"/>
<path d="M904.42 1298.75C903.78 1302.38 906.19 1305.85 909.81 1306.49C913.43 1307.13 916.89 1304.71 917.54 1301.08C918.18 1297.45 915.77 1293.98 912.15 1293.34C908.53 1292.7 905.07 1295.12 904.42 1298.75Z" fill="white"/>
<path d="M536.37 2059.72C535.78 2063.07 538 2066.26 541.34 2066.85C544.68 2067.44 547.86 2065.22 548.46 2061.87C549.05 2058.53 546.83 2055.33 543.49 2054.74C540.15 2054.15 536.97 2056.37 536.37 2059.72Z" fill="white"/>
<path d="M0.140548 404.81C-0.729452 409.7 2.53055 414.37 7.40055 415.24C12.2805 416.11 16.9405 412.85 17.8005 407.96C18.6705 403.07 15.4205 398.4 10.5405 397.53C5.66055 396.66 1.00055 399.92 0.140548 404.81Z" fill="white"/>
<path d="M1409.84 424.73C1409.14 428.67 1411.76 432.42 1415.69 433.12C1419.62 433.82 1423.37 431.2 1424.06 427.26C1424.76 423.33 1422.14 419.57 1418.21 418.87C1414.28 418.17 1410.53 420.79 1409.84 424.73Z" fill="white"/>
<path d="M659.781 1873.67C658.761 1879.43 662.591 1884.92 668.331 1885.95C674.081 1886.97 679.561 1883.14 680.581 1877.38C681.601 1871.62 677.771 1866.13 672.031 1865.1C666.291 1864.08 660.801 1867.92 659.781 1873.67Z" fill="white"/>
<path d="M462.24 1759.89C461.41 1764.55 464.51 1769 469.17 1769.83C473.82 1770.66 478.26 1767.55 479.09 1762.89C479.92 1758.23 476.82 1753.78 472.16 1752.95C467.51 1752.12 463.07 1755.23 462.24 1759.89Z" fill="white"/>
<path d="M554.751 150.85C554.031 154.9 556.731 158.78 560.771 159.5C564.811 160.22 568.681 157.52 569.401 153.46C570.121 149.41 567.421 145.53 563.381 144.81C559.331 144.09 555.471 146.79 554.751 150.85Z" fill="white"/>
<path d="M1055.59 1853.09C1054.66 1858.33 1058.15 1863.34 1063.38 1864.27C1068.61 1865.2 1073.6 1861.71 1074.53 1856.47C1075.46 1851.23 1071.97 1846.22 1066.74 1845.29C1061.51 1844.36 1056.52 1847.85 1055.59 1853.09Z" fill="white"/>
<path d="M975.27 1323.95C974.57 1327.88 977.19 1331.64 981.11 1332.34C985.03 1333.04 988.78 1330.42 989.48 1326.48C990.18 1322.55 987.56 1318.79 983.64 1318.1C979.72 1317.4 975.97 1320.02 975.27 1323.95Z" fill="white"/>
<path d="M425.761 212.71C424.831 217.93 428.311 222.92 433.521 223.85C438.731 224.78 443.711 221.3 444.631 216.07C445.561 210.85 442.081 205.86 436.871 204.93C431.661 204 426.681 207.48 425.751 212.71H425.761Z" fill="white"/>
<path d="M511.681 989.72C510.571 995.97 514.731 1001.93 520.961 1003.04C527.191 1004.15 533.141 999.99 534.251 993.74C535.361 987.5 531.201 981.53 524.971 980.42C518.741 979.31 512.791 983.47 511.681 989.72Z" fill="white"/>
<path d="M1027.19 660.34C1026.01 666.97 1030.43 673.3 1037.04 674.48C1043.66 675.66 1049.98 671.24 1051.15 664.61C1052.32 657.98 1047.91 651.65 1041.3 650.47C1034.68 649.29 1028.36 653.71 1027.19 660.34Z" fill="white"/>
<path d="M696.07 101.73C695.24 106.38 698.34 110.82 702.98 111.65C707.62 112.48 712.05 109.38 712.88 104.73C713.71 100.08 710.61 95.64 705.97 94.81C701.33 93.98 696.9 97.08 696.07 101.73Z" fill="white"/>
<path d="M398.591 420.06C397.431 426.61 401.791 432.86 408.321 434.03C414.861 435.19 421.101 430.83 422.261 424.28C423.421 417.73 419.061 411.47 412.531 410.31C405.991 409.15 399.751 413.51 398.591 420.06Z" fill="white"/>
<path d="M1456.1 943.51C1455.2 948.55 1458.56 953.37 1463.59 954.26C1468.62 955.16 1473.43 951.8 1474.32 946.75C1475.21 941.71 1471.86 936.89 1466.83 936C1461.8 935.11 1456.99 938.46 1456.1 943.51Z" fill="white"/>
<path d="M1178.63 1317.96C1177.93 1321.93 1180.56 1325.72 1184.52 1326.42C1188.48 1327.13 1192.26 1324.48 1192.96 1320.51C1193.66 1316.54 1191.02 1312.76 1187.07 1312.05C1183.11 1311.35 1179.33 1313.99 1178.63 1317.96Z" fill="white"/>
<path d="M977.42 1704.72C976.51 1709.85 979.92 1714.75 985.04 1715.66C990.16 1716.57 995.05 1713.15 995.96 1708.02C996.87 1702.89 993.46 1697.99 988.34 1697.08C983.22 1696.17 978.33 1699.59 977.42 1704.72Z" fill="white"/>
<path d="M563.151 446.36C562.241 451.47 565.641 456.35 570.751 457.26C575.851 458.17 580.721 454.76 581.631 449.65C582.541 444.54 579.141 439.66 574.041 438.75C568.941 437.84 564.071 441.25 563.161 446.36H563.151Z" fill="white"/>
<path d="M915.47 273.03C914.71 277.32 917.56 281.41 921.84 282.18C926.12 282.94 930.21 280.08 930.97 275.79C931.73 271.5 928.88 267.41 924.6 266.64C920.32 265.88 916.23 268.74 915.47 273.03Z" fill="white"/>
<path d="M1291.38 376.39C1290.35 382.18 1294.21 387.71 1299.99 388.74C1305.77 389.77 1311.29 385.91 1312.32 380.12C1313.35 374.33 1309.49 368.8 1303.71 367.77C1297.93 366.74 1292.41 370.6 1291.38 376.39Z" fill="white"/>
<path d="M1233.27 180.37C1232.58 184.29 1235.18 188.03 1239.09 188.73C1243 189.43 1246.74 186.81 1247.43 182.89C1248.13 178.97 1245.52 175.23 1241.61 174.53C1237.7 173.83 1233.97 176.45 1233.27 180.37Z" fill="white"/>
<path d="M1475.76 950.95V959.97C1473.82 963.82 1469.57 966.14 1465.12 965.35C1459.68 964.38 1456.05 959.17 1457.02 953.72C1457.99 948.27 1463.18 944.63 1468.62 945.6C1471.84 946.17 1474.39 948.25 1475.76 950.96V950.95Z" fill="white"/>
</svg>
